<svg width="492" height="360" viewBox="0 0 492 360" fill="none" xmlns="http://www.w3.org/2000/svg">
<path fill-rule="evenodd" clip-rule="evenodd" d="M341.016 4.04088C393.675 -7.74623 442.461 6.23919 468.683 46.1865C494.904 86.1329 488.045 149.521 482.364 177.501C476.684 205.481 462.275 231.108 444.392 253.357C411.176 294.681 366.288 326.305 316.108 343.375C265.927 360.445 211.444 363.946 159.15 355.31C129.815 350.466 38.0525 326.733 18.2442 255.114C-1.56397 183.496 -14.1001 122.284 28.795 97.4198C71.6897 72.5547 101.402 91.2566 122.637 100.453C221.845 143.418 288.358 15.8288 341.016 4.04088Z" fill="#00ADB5"/>
<path fill-rule="evenodd" clip-rule="evenodd" d="M415.167 71.1234C423.614 70.4706 432.72 70.8925 439.604 75.8318C446.488 80.771 449.614 91.6173 443.962 97.9282C450.352 95.4296 457.863 99.6671 461.064 105.737C464.265 111.805 464.098 119.076 463.135 125.871C460.75 142.695 453.891 158.865 443.452 172.272C442.972 173.686 442.492 175.1 442.013 176.513C454.351 179.694 502.533 198.406 489.514 244.534C476.496 290.663 419.642 308.22 413.822 313.741C403.679 323.364 388.197 324.021 374.222 323.578C339.862 322.487 305.606 318.121 272.072 310.556C269.221 309.913 265.609 309.521 263.965 311.938C252.069 329.428 227.193 330.992 206.096 329.469C178.996 327.514 152.052 323.404 125.602 317.191C110.599 313.666 94.6667 308.76 85.3202 296.506C74.4242 282.22 75.6824 262.413 77.4507 244.534C70.2887 248.516 58.4102 250.673 41.816 251.004C32.0452 249.011 25.9509 245.469 23.5322 240.379C12.4718 217.099 8.67906 187.102 22.4522 164.156C24.1068 161.399 26.0158 158.683 28.7102 156.929C31.5662 155.069 35.0481 154.458 38.4435 154.157C51.834 152.972 65.573 156.097 77.1325 162.959C77.0297 125.388 76.926 87.8172 76.8232 50.2461C76.8175 48.0943 76.8469 45.8111 77.9942 43.9906C79.6531 41.3582 83.0518 40.5422 86.1109 39.971C113.939 34.7764 142.082 31.2725 170.334 29.4862C179.565 28.9028 192.197 31.4716 192.24 40.7209C192.401 76.1427 192.561 111.564 192.723 146.986C192.761 155.417 193.303 154.712 197.253 152.269C194.769 152.527 195.324 148.315 197.205 146.674C204.23 140.551 214.466 140.326 223.785 140.421C244.629 140.634 265.472 140.847 286.316 141.061C306.511 141.268 330.731 143.829 339.874 161.837C339.608 156.485 344.459 151.435 349.818 151.484C355.661 151.538 360.549 146.468 362.254 140.878C363.96 135.289 363.207 129.283 362.44 123.489C353.017 114.366 350.55 98.856 356.678 87.259C362.805 75.662 377.008 68.9586 389.855 71.6008C398.153 73.3071 406.721 71.7754 415.167 71.1234ZM173.308 244.876C173.03 252.334 172.737 259.892 170.542 267.025L173.308 244.876ZM164.672 153.351C166.612 153.919 169.012 155.639 167.994 157.384C176.422 158.227 173.905 157.836 174.284 147.906C174.669 137.828 174.701 126.686 168.103 119.059C162.266 112.309 152.745 110.198 143.854 109.44C133.476 108.553 122.987 108.979 112.715 110.704C107.703 111.545 102.274 112.994 99.366 117.161C97.7381 119.494 97.1392 122.375 96.661 125.179C94.7801 136.207 94.1926 147.455 94.9148 158.62C116.521 148.568 141.8 146.658 164.672 153.351ZM352.182 227.391C352.71 226.857 353.511 226.727 354.254 226.625C357.224 226.216 360.193 225.808 363.162 225.4C356.347 222.323 352.218 215.011 350.984 207.637C349.75 200.263 350.954 192.723 352.172 185.346C347.813 190.196 348.127 197.514 348.698 204.011C349.947 218.229 351.654 227.924 352.182 227.391ZM296.121 297.426C296.705 295.527 298.693 294.507 300.149 293.154C302.769 290.719 303.741 287.038 304.597 283.564C307.55 271.562 310.522 259.413 310.484 247.052C310.477 244.434 310.344 241.743 311.21 239.272C312.078 236.802 314.251 234.567 316.869 234.554C319.631 234.54 320.29 230.71 320.043 227.96C319.192 218.478 318.34 208.994 317.489 199.511C317.218 196.482 316.94 193.426 316.021 190.526C312.623 179.81 299.527 173.329 288.946 177.129C287.65 177.594 287.304 179.23 287.157 180.599C285.528 195.767 283.9 210.936 282.271 226.105C281.981 228.799 285.461 230.519 288.088 229.852C290.716 229.184 292.721 227.132 294.992 225.653C297.264 224.174 300.466 223.323 302.552 225.054C304.909 227.01 308.399 224.837 310.446 222.558C312.495 220.28 315.161 217.533 318.074 218.484C314.657 221.751 311.241 225.019 307.825 228.287C306.692 229.371 305.692 231.535 307.125 232.175C311.049 230.783 314.598 228.343 317.303 225.177C318.554 225.137 318.613 227.101 317.915 228.14C315.285 232.054 309.095 232.926 307.501 237.364C303.781 247.723 292.179 254.603 281.305 252.9C279.074 252.55 277.962 255.485 277.694 257.726C276.623 266.665 275.553 275.603 274.482 284.542C274.236 286.598 274.006 288.773 274.853 290.663C276.266 293.816 280.044 295.009 283.394 295.858C287.821 296.98 292.3 298.107 296.826 298.597C298.731 298.804 298.724 298.105 296.121 297.426ZM119.723 281.038C126.049 283.157 132.745 283.875 139.38 284.579C142.194 284.879 145.19 285.146 147.714 283.868C150.685 282.363 152.268 279.101 153.546 276.026C160.672 258.874 164.741 240.457 165.503 221.899C165.611 219.263 162.236 218.098 159.602 217.921C138.581 216.51 118.476 225.751 99.437 234.776C98.5247 235.208 97.548 235.702 97.0976 236.605C96.7614 237.279 96.7785 238.067 96.8038 238.82C97.1449 249.072 97.5749 259.691 102.16 268.868C103.399 271.346 104.974 273.731 107.204 275.375C108.554 276.37 110.101 277.061 111.634 277.744C114.294 278.928 116.961 280.113 119.723 281.038ZM255.715 243.095C258.517 228.026 260.492 212.802 261.628 197.517C262.016 192.287 262.3 186.972 261.17 181.851C260.04 176.731 257.313 171.753 252.854 168.994C250.107 167.293 246.89 166.53 243.709 165.963C237.905 164.928 231.999 164.458 226.104 164.562C220.902 164.654 215.441 165.288 211.195 168.294C209.79 169.288 208.515 170.59 208.002 172.232C207.488 173.874 207.921 175.892 209.346 176.857C212.946 179.296 214.414 183.858 215.089 188.154C215.764 192.45 215.926 196.948 217.884 200.832C218.893 202.834 220.34 204.581 221.859 206.232C230.09 215.182 240.827 221.803 252.519 225.139C254.575 225.726 257.19 226.996 256.756 229.089C263.222 233.168 255.607 243.673 255.715 243.095ZM237.893 287.541C240.274 286.095 241.889 283.687 243.31 281.291C249.339 271.123 253.294 259.731 254.859 248.014C233.17 247.916 211.609 239.734 195.317 225.414C194.76 227.653 194.867 229.995 194.942 232.3C195.418 246.69 194.564 261.124 192.395 275.358C191.878 278.751 193.905 282.143 196.692 284.148C199.479 286.151 202.912 287.012 206.282 287.661C213.879 289.124 221.644 289.725 229.376 289.446C232.316 289.34 235.379 289.069 237.893 287.541ZM374.76 163.415C373.496 160.369 372.547 156.933 369.925 154.933C367.301 152.932 362.363 153.912 362.209 157.207C364.804 156.728 366.789 159.933 366.347 162.535C365.904 165.137 364.012 167.206 362.509 169.376C360.432 172.374 359.012 175.768 357.607 179.133C354.264 187.141 352.963 195.991 353.859 204.622C354.387 209.703 355.78 214.923 359.216 218.704C362.652 222.484 368.542 224.375 373.069 222.008C376.958 219.976 378.897 215.495 379.789 211.199C380.681 206.903 380.84 202.406 382.525 198.354C385.633 190.88 393.297 186.365 400.88 183.53C389.482 181.981 379.169 174.04 374.76 163.415ZM343.242 171.5C343.748 173.46 344.45 175.368 345.333 177.19C345.863 174.623 346.714 172.124 347.86 169.767C346.701 169.635 345.534 169.572 344.368 169.579C344.084 169.58 343.784 169.591 343.545 169.743C343.006 170.085 343.082 170.883 343.242 171.5ZM205.854 169.483C205.137 170.061 204.716 171.305 205.473 171.828C206.633 170.666 207.794 169.505 208.954 168.343C208.714 168.045 208.366 167.838 207.99 167.77C207.529 168.568 206.572 168.906 205.854 169.483Z" fill="white"/>
<path d="M406.776 161.16C409.255 161.16 411.264 159.151 411.264 156.672C411.264 154.193 409.255 152.184 406.776 152.184C404.297 152.184 402.288 154.193 402.288 156.672C402.288 159.151 404.297 161.16 406.776 161.16Z" fill="#FFB61D"/>
<path d="M381.072 156.672C382.424 156.672 383.52 155.576 383.52 154.224C383.52 152.872 382.424 151.776 381.072 151.776C379.72 151.776 378.624 152.872 378.624 154.224C378.624 155.576 379.72 156.672 381.072 156.672Z" fill="#FFB61D"/>
<path fill-rule="evenodd" clip-rule="evenodd" d="M149.268 92.2717C156.612 92.3182 163.955 92.3647 171.299 92.4112C171.643 92.4137 172.012 92.4235 172.289 92.6267C172.856 93.0428 172.63 94.0171 172.046 94.4088C171.464 94.8005 170.707 94.7842 170.005 94.7597C163.542 94.5353 157.06 94.8715 150.655 95.7617C149.681 95.8972 148.653 96.0392 147.742 95.6695C146.831 95.2991 146.134 94.2081 146.554 93.3186C146.992 92.3892 148.24 92.2652 149.268 92.2717ZM124.709 91.5504C125.174 92.0138 124.952 92.8658 124.434 93.2713C123.918 93.6769 123.225 93.7576 122.571 93.8237C116.061 94.4831 109.55 95.1424 103.04 95.8017C102.269 95.8801 101.473 95.9551 100.737 95.7177C100 95.481 99.3334 94.8437 99.3162 94.0702C99.2983 93.2721 99.9756 92.594 100.733 92.3394C101.489 92.0849 102.311 92.1558 103.107 92.2187C109.778 92.7434 116.514 92.4406 123.111 91.3202C123.664 91.2256 124.312 91.1546 124.709 91.5504ZM123.797 79.0525C124.283 79.445 124.11 80.2863 123.622 80.6772C123.134 81.068 122.47 81.1325 121.847 81.1814L100.938 82.8314C100.155 82.8926 99.344 82.9514 98.6063 82.6845C97.8678 82.4169 97.2199 81.729 97.2623 80.9448C97.3056 80.1508 98.0392 79.5348 98.8119 79.3471C99.5847 79.1594 100.394 79.2998 101.181 79.4164C108.278 80.465 115.493 79.5087 122.638 78.8591C123.038 78.8224 123.484 78.7995 123.797 79.0525ZM152.998 74.9097C157.361 75.467 161.783 75.5519 166.165 75.1626C167.907 75.0076 170.012 74.935 171.001 76.376C169.827 77.3259 168.213 77.4605 166.706 77.556C161.709 77.8701 156.714 78.1851 151.718 78.5001C150.578 78.5719 149.158 78.4854 148.688 77.445C148.267 76.5107 149.008 75.387 149.96 75.0092C150.913 74.6306 151.982 74.7799 152.998 74.9097ZM115.308 69.5689C115.313 70.3229 114.367 70.6485 113.621 70.7587L102.641 72.3678C101.857 72.4829 101.048 72.5963 100.282 72.3915C99.517 72.1875 98.8013 71.5788 98.7303 70.7897C98.6422 69.8244 99.5488 69.0092 100.495 68.7986C101.442 68.5881 102.423 68.8084 103.385 68.9325C106.701 69.3592 110.047 68.6305 113.389 68.5155C114.207 68.4877 115.302 68.7505 115.308 69.5689ZM168.287 66.9406C169.137 67.0353 170.009 67.542 170.236 68.3662C168.727 69.5077 166.732 69.715 164.848 69.8823C161.624 70.1679 158.398 70.4535 155.173 70.7399C154.036 70.8403 152.9 70.9415 151.765 71.0418C150.934 71.1153 150.07 71.1846 149.289 70.8901C148.509 70.5955 147.842 69.8211 147.959 68.9953C148.142 67.6938 149.85 67.356 151.164 67.3837C156.04 67.489 160.976 68.225 165.752 67.2434C166.59 67.0712 167.438 66.8451 168.287 66.9406ZM172.57 54.6288C148.672 57.8512 124.17 56.1825 100.601 61.2808C99.2028 61.5828 97.2517 61.5983 96.8903 60.2143C96.9229 58.584 99.0314 57.9956 100.658 57.8798C123.587 56.2445 146.514 54.6092 169.442 52.974C170.788 52.8777 172.675 53.2849 172.57 54.6288Z" fill="#E7EAEE"/>
<path fill-rule="evenodd" clip-rule="evenodd" d="M88.505 302.352C88.7547 305.243 84.7694 306.222 81.8669 306.233C66.7847 306.293 51.7173 309.091 37.6193 314.449C35.4675 315.267 33.1647 316.297 32.1178 318.347C30.7306 321.061 32.2443 324.535 34.6972 326.343C37.1509 328.152 40.2819 328.704 43.2905 329.193C121.485 341.926 200.843 347.508 280.05 345.845L281.324 345.817C290.459 345.606 299.782 345.115 308.151 341.498C301.223 336.642 294.295 331.786 287.367 326.93C299.36 324.535 311.735 326.241 323.905 327.443C351.761 330.193 379.883 330.248 407.749 327.61C405.788 330.745 401.474 331.18 397.777 331.259C362.724 332.014 327.628 330.769 292.716 327.532C297.271 330.529 301.826 333.527 306.381 336.524C308.032 337.61 309.858 338.989 309.953 340.963C310.096 343.929 306.452 345.409 303.523 345.893C293.801 347.499 283.911 347.756 274.059 347.899C197.111 349.024 120.067 343.518 44.0616 331.462C40.3529 330.874 36.5103 330.217 33.4177 328.088C30.325 325.957 28.2171 321.906 29.5164 318.384C30.8089 314.879 34.742 313.234 38.2925 312.074C54.5398 306.767 71.4506 303.492 88.505 302.352ZM192.24 40.7209C192.401 76.1427 192.561 111.564 192.723 146.986C192.761 155.417 194.422 166.085 202.575 168.232C213.841 163.032 226.54 160.977 238.871 162.36C245.93 163.152 253.26 165.286 258.04 170.542C264.595 177.75 264.604 188.608 263.901 198.326C262.475 218.025 259.664 237.625 255.499 256.932C258.808 256.723 262.184 258.05 264.464 260.458C260.952 262.064 256.768 262.132 253.206 260.639C255.653 273.899 244.85 286.982 231.912 290.78C218.974 294.579 204.935 290.997 192.769 285.183C191.628 289.626 197.572 292.237 202.11 292.907C213.63 294.61 225.15 296.313 236.67 298.016C222.443 298.443 208.17 297.279 194.201 294.551C191.628 298.193 197.453 301.872 201.856 302.584C213.532 304.474 225.209 306.363 236.886 308.253C223.697 308.165 210.513 307.286 197.43 305.621C205.751 313.127 217.109 317.163 228.3 316.59C221.987 318.666 214.974 318.541 208.739 316.242C216.539 326.687 232.497 328.622 244.15 322.779C255.805 316.937 263.414 304.984 267.136 292.49C270.859 279.997 271.22 266.792 271.88 253.772C273.097 229.739 275.424 205.738 279.634 182.045C282.47 166.09 289.434 147.066 305.481 144.812C276.892 143.494 248.275 142.784 219.656 142.68C210.959 142.649 200.157 144.071 197.253 152.269C194.769 152.527 195.324 148.315 197.205 146.674C204.23 140.551 214.466 140.326 223.785 140.421L286.316 141.061C306.511 141.268 330.731 143.829 339.874 161.837C339.608 156.485 344.459 151.435 349.818 151.484C355.661 151.538 360.549 146.468 362.254 140.878C363.96 135.289 363.207 129.283 362.439 123.489C353.017 114.366 350.55 98.856 356.678 87.259C358.411 83.9787 360.971 76.1573 375.272 71.1234C384.806 67.7672 394.23 68.1361 403.544 72.2299C421.036 68.8476 433.055 70.0488 439.604 75.8318C449.426 84.5075 449.614 91.6173 443.962 97.9282C450.352 95.4296 457.863 99.6671 461.064 105.737C464.265 111.805 464.098 119.076 463.135 125.871C460.75 142.695 453.891 158.865 443.452 172.272L442.013 176.513C467.265 183.023 487.694 205.343 491.948 231.073C483.552 212.149 472.187 192.108 452.605 185.39C448.186 190.024 443.643 194.861 441.568 200.919C439.493 206.977 440.614 214.631 445.875 218.281C442.571 219.046 439.266 219.812 435.961 220.579C437.061 222.53 438.161 224.481 439.261 226.432C426.774 235.925 425.337 253.881 425.413 269.567C425.489 285.254 425.203 302.944 413.822 313.741C403.678 323.364 388.197 324.021 374.223 323.578C339.862 322.487 305.606 318.121 272.072 310.556C269.22 309.913 265.609 309.521 263.965 311.938C252.07 329.428 227.193 330.992 206.096 329.469C178.996 327.514 152.053 323.404 125.602 317.191C110.599 313.666 94.6666 308.76 85.3202 296.506C74.4241 282.22 75.6824 262.413 77.4507 244.534C66.708 250.507 53.9727 252.819 41.816 251.004C54.6304 242.626 60.8443 226.599 60.9609 211.289C61.0776 195.98 55.9678 181.141 50.282 166.926C37.7555 174.192 31.1647 189.506 32.1455 203.954C33.1255 218.402 40.7911 231.812 51.0759 242.006C38.3969 234.004 30.0076 219.59 29.3132 204.614C28.6188 189.637 35.6388 174.508 47.5222 165.367C45.6234 158.874 35.8265 158.08 30.6914 162.486C25.5568 166.892 23.9453 174.043 22.6245 180.68C20.1839 192.941 17.7333 205.488 19.5066 217.864C21.2798 230.239 28.116 242.627 39.5711 247.635C34.2182 251.494 27.0876 245.938 23.5322 240.379C9.11442 217.832 8.679 187.102 22.4523 164.156C24.1068 161.399 26.0157 158.683 28.7102 156.929C31.5662 155.069 35.048 154.458 38.4434 154.157C51.834 152.972 65.573 156.097 77.1332 162.959C77.0296 125.388 76.9268 87.8172 76.8232 50.2461C76.8175 48.0943 76.8468 45.8111 77.9941 43.9906C79.653 41.3582 83.0517 40.5422 86.1109 39.971C113.939 34.7764 142.082 31.2725 170.333 29.4862C179.565 28.9028 192.198 31.4716 192.24 40.7209ZM173.371 31.7498C143.418 33.1599 113.573 36.8629 84.1827 42.8156C82.9317 43.0686 81.6074 43.3648 80.6983 44.2599C79.4597 45.4798 79.3642 47.4129 79.3479 49.151C78.997 86.5622 79.1455 123.977 79.7926 161.384C83.3895 160.487 86.9864 159.59 90.5826 158.693C89.1766 151.018 87.7649 143.238 88.3663 135.458C88.9669 127.677 91.8221 119.765 97.6948 114.626C104.051 109.064 112.921 107.493 121.346 106.901C129.447 106.332 137.598 106.464 145.677 107.294C153.925 108.142 162.613 109.974 168.562 115.747C177.157 124.088 177.296 137.599 176.851 149.566C175.67 181.336 174.489 213.107 173.308 244.876C173.03 252.334 172.737 259.892 170.542 267.025C168.347 274.157 163.991 280.936 157.4 284.436C150.932 287.871 143.193 287.774 135.917 286.947C128.97 286.157 122.091 284.78 115.375 282.835C111.296 281.653 107.214 280.23 103.747 277.777C92.2758 269.659 90.9196 253.459 90.6405 239.409C86.2357 238.613 81.9297 241.966 80.1108 246.056C78.2928 250.146 78.3727 254.793 78.4862 259.268C78.7677 270.429 79.2026 282.148 84.9007 291.75C93.6923 306.565 112.158 312.038 129.018 315.576C158.943 321.855 189.326 325.95 219.846 327.817C206.225 320.88 194.149 309.006 191.277 293.993C190.496 289.915 190.413 285.74 190.331 281.589C188.741 200.414 187.15 119.24 185.56 38.0648C185.46 32.9314 178.5 31.5083 173.371 31.7498ZM289.486 165.023C288.729 166.871 288.178 168.921 288.682 170.853C289.186 172.786 291.064 174.473 293.034 174.145C301.857 172.675 311.368 177.021 316.033 184.654C319.881 190.951 320.415 198.656 320.849 206.024L324.795 273.136C325.217 280.307 325.425 288.2 320.967 293.834C315.184 301.144 304.325 301.387 295.048 300.48C287.394 299.732 279.341 298.459 273.398 293.576C273.609 296.418 272.781 299.325 271.104 301.629C269.034 304.473 272.375 308.215 275.625 309.559C279.594 311.202 283.911 311.774 288.171 312.327C307.683 314.859 327.206 317.302 346.741 319.653C361.777 321.463 377.053 323.216 392.001 320.787C382.545 318.133 373.495 314.032 365.266 308.67C361.161 305.994 357.191 302.938 354.39 298.916C349.82 292.352 348.856 284.01 348.096 276.047C345.835 252.368 344.151 228.635 343.048 204.874C342.234 187.349 336.615 170.07 326.963 155.419C325.237 152.799 323.126 150.08 320.075 149.351C307.944 146.451 294.219 153.483 289.486 165.023ZM233.859 316.685C234.888 316.859 235.944 317.09 236.793 317.698C237.64 318.307 238.232 319.387 237.971 320.398C237.71 321.409 236.376 322.073 235.534 321.457C234.603 320.777 233.366 320.753 232.258 320.44C231.15 320.127 229.988 319.206 230.187 318.072C230.44 316.634 232.42 316.44 233.859 316.685ZM191.135 317.112C192.411 317.377 193.906 318.287 193.644 319.564C193.414 320.691 192.02 321.067 190.88 321.218C189.603 321.389 188.239 321.547 187.079 320.986C185.919 320.424 185.167 318.839 185.927 317.799C186.441 317.098 187.401 316.911 188.27 316.876C189.23 316.837 190.194 316.916 191.135 317.112ZM267.519 302.912C266.307 303.786 265.475 305.074 264.62 306.3C260.722 311.884 255.781 316.739 250.129 320.538C250.27 321.138 251.169 320.986 251.702 320.677C258.246 316.885 262.917 310.621 267.399 304.529C267.766 304.03 268.068 303.196 267.519 302.912ZM326.04 152.038C329.532 156.161 333.05 160.324 335.605 165.084C338.374 170.246 339.93 175.966 341.183 181.687C348.19 213.697 346.319 246.976 350.86 279.428C351.68 285.283 352.763 291.263 355.81 296.33C359.379 302.267 365.303 306.382 371.338 309.782C376.218 312.532 381.313 314.948 386.673 316.576C395.197 319.166 405.436 319.348 411.971 313.292C415.639 309.892 417.569 305.04 419.077 300.269C425.539 279.824 426.249 257.594 421.107 236.777C421.236 249.228 422.853 261.648 422.482 274.093C422.113 286.538 419.558 299.354 412.242 309.428C410.793 311.424 409.113 313.339 406.924 314.473C404.039 315.968 400.612 315.939 397.388 315.546C391.756 314.858 386.25 313.156 381.212 310.547C377.385 308.564 373.845 306.073 370.414 303.465C366.426 300.432 362.511 297.166 359.717 293.009C356.949 288.887 355.405 284.072 354.181 279.261C345.241 244.126 351.633 206.227 341.026 171.559C338.526 163.389 334.184 154.623 326.04 152.038ZM112.781 306.606C133.417 309.791 154.053 312.976 174.689 316.162C174.167 317.527 172.28 317.574 170.831 317.381C153.183 315.023 135.534 312.666 117.886 310.308C115.891 310.042 113.896 309.775 111.9 309.509C110.953 309.382 109.777 309.039 109.657 308.091C109.488 306.756 111.45 306.401 112.781 306.606ZM352.172 185.346C347.813 190.196 348.127 197.514 348.698 204.011C349.947 218.229 351.197 232.448 352.447 246.667C352.505 247.333 352.576 248.034 352.967 248.576C353.605 249.462 354.839 249.616 355.929 249.693C370.765 250.738 385.602 251.783 400.438 252.829C399.329 254.583 396.828 254.609 394.76 254.449C380.792 253.371 366.768 253.021 352.763 253.403C352.522 260.585 353.58 267.808 355.872 274.618C356.865 277.571 360.69 278.199 363.802 278.325C375.669 278.806 387.536 279.286 399.404 279.766C399.95 280.996 398.033 281.764 396.687 281.749C384.489 281.608 372.291 281.468 360.093 281.327C358.421 281.309 357.817 283.675 358.447 285.223C360.093 289.268 365.331 290.139 369.69 290.412L396.962 292.12C397.585 292.159 397.714 293.137 397.26 293.564C396.805 293.992 396.113 294.003 395.489 293.99L363.557 293.313C371.814 303.139 383.394 310.121 395.937 312.836C398.64 313.422 401.505 313.806 404.131 312.939C407.274 311.901 409.591 309.234 411.405 306.466C421.026 291.788 420.386 272.902 419.403 255.38L418.288 235.519C418.677 234.984 419.477 234.798 420.062 235.108C420.288 234.134 419.022 233.556 418.038 233.375C396.334 229.389 374.063 225.396 352.341 229.29C351.647 229.005 351.654 227.924 352.182 227.391C352.71 226.857 353.511 226.727 354.254 226.625C357.224 226.216 360.193 225.808 363.162 225.4C356.347 222.323 352.217 215.011 350.984 207.637C349.75 200.263 350.954 192.723 352.172 185.346ZM245.499 306.084C247.432 306.444 249.664 307.035 250.418 308.85C248.266 310.318 245.44 310.167 242.843 309.96C242.129 309.903 241.348 309.816 240.846 309.304C239.959 308.399 240.621 306.731 241.764 306.181C242.906 305.632 244.252 305.852 245.499 306.084ZM98.266 292.817C120.5 299.803 143.539 304.22 166.78 305.951C168.582 306.086 171.006 306.945 170.659 308.719C146.08 305.94 121.651 301.831 97.5145 296.418C95.9747 296.073 93.9983 294.976 94.572 293.505C95.0763 292.213 96.9433 292.401 98.266 292.817ZM179.701 303.599C180.836 303.597 181.932 303.986 182.993 304.39C183.533 304.595 184.127 304.86 184.336 305.398C184.782 306.545 183.2 307.365 181.989 307.585C181.174 307.732 180.359 307.881 179.544 308.029C178.857 308.154 178.117 308.272 177.483 307.976C176.455 307.494 176.188 306.011 176.778 305.04C177.367 304.07 178.565 303.603 179.701 303.599ZM284.396 301.149C294.231 303.019 304.304 303.125 314.315 303.226C315.089 303.233 315.298 304.452 314.745 304.994C314.192 305.537 313.328 305.56 312.553 305.545C303.208 305.361 293.852 304.376 284.534 305.111C283.52 305.191 282.467 305.286 281.514 304.929C280.561 304.572 279.749 303.609 279.93 302.609C280.086 301.745 280.928 301.141 281.788 300.974C282.649 300.807 283.535 300.985 284.396 301.149ZM306.614 146.976C295.479 148.639 286.124 158.549 285.106 169.762C284.155 180.234 281.265 190.418 279.207 200.73C272.6 233.844 274.604 268.163 268.762 301.421C270.896 297.536 271.471 293.014 272.009 288.614L286.174 172.604C286.551 169.517 286.937 166.395 288.046 163.489C291.076 155.549 298.909 150.561 306.614 146.976ZM255.985 297.227C256.591 297.42 257.213 297.673 257.617 298.165C258.022 298.656 258.123 299.45 257.681 299.908C257.348 300.254 256.825 300.316 256.347 300.358C254.782 300.496 253.217 300.635 251.652 300.773C250.807 300.848 249.934 300.919 249.129 300.653C248.324 300.386 247.597 299.688 247.574 298.84C247.535 297.404 249.307 296.682 250.74 296.588C252.508 296.473 254.297 296.691 255.985 297.227ZM288.946 177.129C287.65 177.594 287.304 179.23 287.157 180.599L282.271 226.105C281.981 228.799 285.461 230.519 288.089 229.852C290.716 229.184 292.721 227.132 294.992 225.653C297.264 224.174 300.466 223.323 302.552 225.054C304.909 227.01 308.399 224.837 310.446 222.558C312.495 220.28 315.161 217.533 318.074 218.484C314.657 221.751 311.241 225.019 307.825 228.287C306.692 229.371 305.692 231.535 307.124 232.175C311.049 230.783 314.598 228.343 317.303 225.177C318.554 225.137 318.613 227.101 317.915 228.14C315.285 232.054 309.095 232.926 307.501 237.364C303.781 247.723 292.179 254.603 281.305 252.9C279.074 252.55 277.962 255.485 277.694 257.726C276.623 266.665 275.553 275.603 274.482 284.542C274.236 286.598 274.006 288.773 274.852 290.663C276.266 293.816 280.044 295.009 283.394 295.858C289.686 297.452 296.081 299.058 302.568 298.828C309.054 298.6 315.762 296.28 319.87 291.254C318.732 289.777 316.198 291.671 314.541 290.817C312.921 289.98 313.781 287.197 315.521 286.649C317.262 286.102 319.098 286.972 320.714 287.817C321.729 285.837 322.773 283.718 322.564 281.501C322.355 279.286 320.322 277.095 318.153 277.593C316.727 277.921 316.146 275.45 317.296 274.545C318.445 273.641 320.096 273.934 321.519 274.272C321.598 268.924 321.677 263.577 321.756 258.23C321.772 257.139 321.776 255.992 321.258 255.032C320.74 254.071 319.514 253.397 318.53 253.872C317.191 254.517 316.029 252.235 316.925 251.048C317.822 249.862 319.515 249.708 321.002 249.656C321.117 244.907 320.81 240.148 320.086 235.453C314.489 238.257 313.51 245.658 312.945 251.893C311.862 263.85 309.684 275.708 306.447 287.27C305.722 289.86 304.906 292.509 303.211 294.598C301.516 296.686 298.724 298.105 296.121 297.426C296.705 295.527 298.693 294.507 300.148 293.154C302.769 290.719 303.741 287.038 304.596 283.564C307.55 271.562 310.521 259.413 310.484 247.052L310.479 246.223C310.459 243.87 310.435 241.483 311.211 239.272C312.078 236.802 314.251 234.567 316.869 234.554C319.63 234.54 320.29 230.71 320.043 227.96C319.191 218.478 318.34 208.994 317.489 199.511C317.218 196.482 316.94 193.426 316.02 190.526C312.623 179.81 299.527 173.329 288.946 177.129ZM330.612 292.785C331.91 293.133 333.17 294.468 332.63 295.698C332.115 296.874 330.498 296.939 329.22 296.818C328.595 296.759 327.929 296.684 327.441 296.289C326.585 295.597 326.706 294.129 327.507 293.375C328.309 292.621 329.549 292.499 330.612 292.785ZM174.649 291.47C175.503 291.655 176.393 291.904 177.007 292.525C177.62 293.147 177.824 294.255 177.213 294.88C176.715 295.391 175.911 295.4 175.198 295.376C174.172 295.34 173.146 295.303 172.121 295.267C171.526 295.247 170.892 295.212 170.414 294.858C169.396 294.099 169.842 292.324 170.937 291.68C172.032 291.035 173.408 291.201 174.649 291.47ZM95.6205 282.165C101.362 284.835 107.67 286 113.909 287.087C126.537 289.287 139.204 291.268 151.901 293.03C153.677 293.276 155.645 293.625 156.728 295.056C151.811 295.392 146.897 294.573 142.037 293.757C126.015 291.066 109.993 288.376 93.9706 285.685C92.2913 285.403 90.1231 284.471 90.4504 282.8C90.838 280.818 93.7903 281.314 95.6205 282.165ZM195.317 225.414C194.76 227.653 194.867 229.995 194.942 232.3C195.418 246.69 194.564 261.124 192.395 275.358C191.878 278.751 193.905 282.143 196.692 284.148C199.479 286.151 202.911 287.012 206.282 287.661C213.879 289.124 221.644 289.725 229.376 289.446C232.316 289.34 235.378 289.069 237.893 287.541C240.274 286.095 241.889 283.687 243.31 281.291C249.339 271.123 253.294 259.731 254.859 248.014C233.17 247.916 211.609 239.734 195.317 225.414ZM252.045 282.469C253.526 282.958 255.007 283.447 256.488 283.935C256.982 284.098 257.511 284.287 257.804 284.716C258.299 285.443 257.818 286.505 257.052 286.936C256.287 287.367 255.357 287.344 254.479 287.309C252.88 287.245 251.114 287.11 249.998 285.964C248.882 284.818 249.265 282.344 250.861 282.241C251.265 282.214 251.661 282.343 252.045 282.469ZM329.671 282.684C330.551 282.824 331.48 282.986 332.159 283.565C332.838 284.144 333.117 285.289 332.491 285.926C332.239 286.182 331.889 286.313 331.55 286.432C330.239 286.888 328.784 287.252 327.487 286.755C326.191 286.259 325.307 284.545 326.122 283.421C326.871 282.388 328.411 282.482 329.671 282.684ZM99.437 234.776C98.5247 235.208 97.5479 235.702 97.0975 236.605C96.7613 237.279 96.7785 238.067 96.8037 238.82C97.1448 249.072 97.5749 259.691 102.16 268.868C103.399 271.346 104.974 273.731 107.204 275.375C108.554 276.37 110.1 277.061 111.634 277.744C114.294 278.928 116.961 280.113 119.723 281.038C126.049 283.157 132.745 283.875 139.38 284.579C142.194 284.879 145.19 285.146 147.714 283.868C150.685 282.363 152.268 279.101 153.546 276.026C160.672 258.874 164.741 240.457 165.503 221.899C165.611 219.263 162.236 218.098 159.602 217.921C138.58 216.51 118.476 225.751 99.437 234.776ZM168.768 221.156C168.228 221.865 168.161 222.814 168.107 223.703C166.85 244.69 161.627 265.433 152.794 284.512C161.209 280.254 167.478 271.984 169.307 262.732C169.935 259.552 170.063 256.297 170.191 253.056C170.591 242.841 170.99 232.625 171.39 222.409C171.411 221.87 171.416 221.278 171.073 220.862C170.507 220.174 169.307 220.446 168.768 221.156ZM172.253 272.272C173.32 272.33 174.324 272.774 175.362 273.032C176.291 273.263 176.572 274.587 176.053 275.392C175.534 276.196 174.533 276.547 173.585 276.68C172.595 276.819 171.531 276.766 170.679 276.242C169.828 275.718 169.275 274.624 169.615 273.684C169.979 272.679 171.185 272.214 172.253 272.272ZM330.283 269.498C331.281 269.704 332.137 270.323 332.959 270.926C333.405 271.253 333.879 271.62 334.026 272.154C334.212 272.835 333.763 273.569 333.143 273.908C332.524 274.248 331.782 274.272 331.078 274.216C330.078 274.136 329.044 273.888 328.289 273.227C327.534 272.565 327.151 271.405 327.621 270.518C328.099 269.618 329.285 269.291 330.283 269.498ZM92.7833 237.76C92.5108 238.248 92.5654 238.844 92.6291 239.399L94.1117 252.459C94.9171 259.547 95.9714 267.185 100.925 272.316C101.751 271.925 101.285 270.684 100.765 269.932C96.7515 264.141 95.9788 256.778 95.3276 249.763C94.9465 245.651 94.5646 241.539 94.1836 237.427C93.8 237.022 93.0567 237.274 92.7833 237.76ZM356.945 264.514C370.555 264.85 384.165 265.185 397.775 265.522C399.857 265.573 401.947 265.625 404.007 265.934C403.577 267.423 401.621 267.703 400.072 267.688C386.423 267.559 372.73 266.715 359.155 268.134C357.995 268.255 356.741 268.374 355.734 267.785C354.727 267.195 354.276 265.579 355.202 264.869C355.682 264.5 356.34 264.499 356.945 264.514ZM319.551 261.84C319.851 261.938 320.157 262.041 320.402 262.24C321.215 262.903 320.912 264.318 320.08 264.957C319.248 265.595 318.127 265.669 317.078 265.695C315.986 265.721 314.713 265.636 314.091 264.738C313.311 263.611 314.238 261.944 315.531 261.487C316.823 261.03 318.248 261.413 319.551 261.84ZM329.502 259.089C330.771 259.226 332.006 259.671 333.071 260.375C333.885 260.913 333.723 262.264 332.982 262.899C332.241 263.534 331.184 263.623 330.209 263.588C329.223 263.552 328.194 263.402 327.396 262.821C326.599 262.241 326.124 261.119 326.552 260.23C327.039 259.216 328.382 258.968 329.502 259.089ZM192.395 228.03C191.654 238.712 191.322 249.422 191.399 260.129C191.403 260.582 191.711 261.225 192.097 260.989C192.917 251.989 193.319 242.951 193.302 233.914C193.298 231.911 193.258 229.836 192.395 228.03ZM177.846 255.433C179.013 255.521 180.043 256.2 180.995 256.882C181.288 257.091 181.59 257.316 181.753 257.637C182.093 258.302 181.686 259.159 181.048 259.548C180.411 259.938 179.622 259.968 178.876 259.934C177.179 259.854 175.045 258.931 175.235 257.242C175.366 256.078 176.678 255.344 177.846 255.433ZM332.329 248.237C333.466 248.704 334.635 249.922 334.048 251.001C333.65 251.731 332.682 251.889 331.85 251.898C330.885 251.907 329.919 251.828 328.967 251.663C327.629 251.429 327.424 249.325 328.463 248.449C329.502 247.574 331.072 247.721 332.329 248.237ZM464.767 227.336C465.235 228.12 465.243 229.086 465.238 229.999C465.198 236.462 465.158 242.927 465.118 249.39C465.113 250.175 465.008 251.127 464.295 251.456C463.68 251.741 462.921 251.341 462.578 250.755C462.235 250.169 462.204 249.459 462.193 248.781C462.094 243.01 462.736 237.101 461.102 231.566C460.617 229.921 460.036 227.867 461.305 226.715C462.298 225.814 464.079 226.185 464.767 227.336ZM298.583 226.587C293.683 229.627 288.529 232.753 282.778 233.168C281.732 233.243 281.26 234.493 281.054 235.521C280.125 240.149 279.613 244.86 279.525 249.578C279.519 249.867 279.522 250.177 279.689 250.412C279.954 250.786 280.495 250.802 280.953 250.778C285.44 250.543 289.988 250.075 294.155 248.395C298.322 246.714 302.113 243.672 303.811 239.512C305.509 235.352 304.693 230.048 301.225 227.191C300.479 226.576 299.404 226.078 298.583 226.587ZM261.073 244.782C262.647 245.195 264.221 245.609 265.795 246.022C266.383 246.177 267.038 246.381 267.319 246.921C267.65 247.556 267.264 248.375 266.666 248.767C266.066 249.16 265.32 249.234 264.606 249.298C263.475 249.398 262.31 249.495 261.224 249.162C260.138 248.827 259.138 247.951 259.014 246.822C258.89 245.693 259.974 244.493 261.073 244.782ZM42.6989 158.644C48.5904 161.03 53.0253 166.192 55.7761 171.923C58.526 177.654 59.7785 183.972 60.8704 190.234C62.677 200.599 64.1156 211.178 62.7986 221.616C61.4807 232.054 57.1176 242.462 49.0286 249.189C54.9209 249.504 61.9565 249.271 65.1552 244.313C66.5905 242.088 69.6807 241.103 72.1385 242.087C70.593 240.75 71.7599 238.262 72.9072 236.572C77.6065 229.645 80.8314 221.683 81.9836 213.391C84.2186 197.315 78.6004 181.021 70.265 167.092C64.8565 158.056 52.242 154.19 42.6989 158.644ZM182.396 241.927C183.611 242.405 183.328 244.414 182.192 245.06C181.056 245.705 179.639 245.415 178.374 245.093C177.783 244.942 177.156 244.767 176.755 244.308C175.819 243.237 176.893 241.426 178.28 241.106C179.665 240.787 181.072 241.406 182.396 241.927ZM226.104 164.562C220.902 164.654 215.441 165.288 211.195 168.294C209.79 169.288 208.515 170.59 208.002 172.232C207.489 173.874 207.921 175.892 209.346 176.857C212.946 179.296 214.414 183.858 215.089 188.154C215.763 192.45 215.926 196.948 217.883 200.832C218.893 202.834 220.34 204.581 221.859 206.232C230.09 215.182 240.827 221.803 252.519 225.139C254.575 225.726 257.19 226.996 256.756 229.089C239.933 225.56 224.593 215.409 214.771 201.304C211.786 210.471 205.899 218.669 198.166 224.425C213.25 237.263 232.771 244.784 252.569 245.386C253.466 245.414 254.481 245.379 255.087 244.717C255.483 244.283 255.607 243.673 255.715 243.095C258.517 228.026 260.492 212.802 261.628 197.517C262.016 192.287 262.301 186.972 261.17 181.851C260.04 176.731 257.313 171.753 252.854 168.994C250.106 167.293 246.89 166.53 243.709 165.963C237.905 164.928 231.999 164.458 226.104 164.562ZM329.467 237.9C330.83 237.902 332.551 238.3 332.791 239.642C333.029 240.98 331.505 241.978 330.156 242.15C329.17 242.275 328.098 242.156 327.316 241.543C326.533 240.929 326.169 239.727 326.713 238.894C327.27 238.04 328.447 237.899 329.467 237.9ZM430.247 211.028C427.743 220.726 426.282 230.658 424.825 240.567C424.753 241.06 424.711 241.644 425.083 241.975C428.985 237.126 432.565 232.019 435.791 226.696C436.11 226.172 436.422 225.485 436.065 224.984C435.257 223.854 434.448 222.724 433.64 221.594C433.041 220.756 432.422 219.65 432.95 218.765C433.378 218.044 434.339 217.892 435.174 217.815L442.03 217.184C441.955 216.759 441.697 216.393 441.445 216.043C439.61 213.489 437.608 210.802 434.669 209.682C433.039 209.061 430.682 209.34 430.247 211.028ZM112.715 110.704C107.703 111.545 102.274 112.994 99.366 117.161C97.7381 119.494 97.1391 122.375 96.6609 125.179C94.7801 136.207 94.1925 147.455 94.9147 158.62C116.521 148.568 141.8 146.658 164.672 153.351C166.612 153.919 169.012 155.639 167.994 157.384C150.838 151.039 131.728 150.093 114.029 154.712C108.301 156.207 102.735 158.262 97.0412 159.877C88.5776 162.277 79.8375 163.695 71.05 164.096C87.0542 185.825 89.1252 216.939 76.1418 240.598C84.2202 239.07 91.8098 235.676 99.2583 232.195C110.378 226.998 121.45 221.518 133.263 218.182C145.075 214.846 157.847 213.755 169.564 217.413C170.935 217.84 171.69 215.862 171.744 214.428L174.284 147.906C174.669 137.828 174.701 126.686 168.103 119.059C162.266 112.309 152.745 110.198 143.854 109.44C133.476 108.553 122.987 108.979 112.715 110.704ZM267.51 234.172C267.838 234.385 268.177 234.656 268.253 235.039C268.409 235.819 267.46 236.315 266.696 236.532C265.585 236.847 264.44 237.163 263.292 237.042C262.143 236.922 260.976 236.261 260.598 235.17C260.221 234.079 260.979 232.647 262.133 232.626C264.026 232.591 265.925 233.137 267.51 234.172ZM430.482 192.312C426.302 194.656 421.309 195.512 416.588 194.695C417.191 196.379 419.839 196.966 419.852 198.756C419.861 199.845 418.834 200.612 418.251 201.532C417.802 202.24 417.608 203.076 417.428 203.894C415.746 211.597 414.78 219.456 414.548 227.337C414.508 228.695 414.845 230.488 416.196 230.636C418.993 230.943 421.627 232.511 423.23 234.824C424.543 226.561 425.856 218.298 427.169 210.035C427.474 208.118 427.73 205.976 426.606 204.393C425.061 202.215 426.407 199.231 427.762 196.929L430.482 192.312ZM181.628 228.027C183.055 228.312 184.677 229.544 184.137 230.895C183.804 231.727 182.799 232.063 181.904 232.11C181.008 232.159 180.077 232.026 179.239 232.344C178.253 232.718 177.092 231.844 176.972 230.796C176.851 229.748 177.58 228.731 178.529 228.27C179.478 227.81 180.594 227.821 181.628 228.027ZM329.449 226.751C330.349 226.876 331.297 227.073 331.951 227.702C332.606 228.332 332.786 229.529 332.089 230.112C331.859 230.304 331.569 230.406 331.285 230.503C330.049 230.925 328.727 231.338 327.46 231.024C326.193 230.712 325.09 229.366 325.529 228.137C326.034 226.718 327.958 226.545 329.449 226.751ZM411.313 209.764C410.361 209.994 409.666 210.788 409.038 211.541L405.257 216.07C404.517 216.954 405.818 218.188 406.967 218.284C408.116 218.38 409.458 218.11 410.276 218.923C411.133 219.775 410.779 221.26 410.078 222.243C409.377 223.227 408.382 224.03 407.958 225.161C407.324 226.852 408.373 228.971 410.102 229.493C411.041 229.775 412.359 229.34 412.367 228.359C412.415 222.626 412.751 216.895 413.371 211.196C413.477 210.222 412.265 209.535 411.313 209.764ZM219.418 212.611C220.143 213.093 220.611 213.863 221.094 214.587C225.244 220.799 232.183 225.069 239.599 225.972C241.314 226.181 243.338 226.389 244.198 227.888C242.582 229.488 239.949 229.293 237.734 228.778C229.883 226.951 222.688 222.415 217.656 216.118C216.853 215.114 216.12 213.586 217.015 212.664C217.621 212.039 218.694 212.13 219.418 212.611ZM407.235 185.159C401.69 186.521 396.153 188.445 391.66 191.967C387.166 195.488 383.823 200.84 383.859 206.549C383.904 213.79 380.346 220.966 374.555 225.313L384.304 226.46C385.446 226.594 386.725 226.691 387.619 225.969C388.926 224.912 388.591 222.882 388.262 221.234C387.931 219.586 388.004 217.407 389.572 216.801C391.52 216.048 393.132 218.749 392.836 220.816C392.542 222.883 391.342 224.873 391.718 226.926C396.335 227.582 400.966 228.133 405.607 228.582C404.684 227.824 404.583 226.387 405.051 225.288C405.518 224.188 406.425 223.347 407.306 222.54C408.246 221.682 406.892 220.168 405.626 220.032C404.361 219.897 402.872 220.2 401.98 219.293C400.871 218.164 401.704 216.272 402.65 215.003C404.486 212.541 406.762 209.574 405.581 206.739C402.698 199.827 403.332 191.551 407.235 185.159ZM194.6 166.272C193.827 185.195 193.933 204.153 194.917 223.066C202.145 219.143 207.426 212.242 210.702 204.699C212.7 200.096 214.038 195.024 213.239 190.071C212.643 186.377 210.894 182.964 208.861 179.824C205.254 174.253 200.545 169.223 194.6 166.272ZM362.209 157.207C364.804 156.728 366.789 159.933 366.346 162.535C365.904 165.137 364.012 167.206 362.509 169.376C360.432 172.374 359.012 175.768 357.607 179.133C354.264 187.141 352.962 195.991 353.859 204.622C354.387 209.703 355.78 214.923 359.216 218.704C362.652 222.484 368.542 224.375 373.069 222.008C376.958 219.976 378.897 215.495 379.789 211.199C380.681 206.903 380.839 202.406 382.525 198.354C385.633 190.88 393.297 186.365 400.88 183.53C389.482 181.981 379.169 174.04 374.76 163.415C373.496 160.369 372.547 156.933 369.925 154.933C367.301 152.932 362.363 153.912 362.209 157.207ZM265.864 218.163C266.666 218.316 267.452 218.549 268.208 218.857C269.455 219.365 270.796 220.768 269.993 221.849C269.555 222.441 268.713 222.512 267.978 222.531C266.636 222.565 265.189 222.569 264.094 221.795C262.998 221.019 262.619 219.145 263.724 218.384C264.331 217.966 265.14 218.024 265.864 218.163ZM326.291 214.968C327.376 215.06 328.456 215.211 329.526 215.419C330.055 215.522 330.625 215.666 330.957 216.09C331.462 216.733 331.144 217.741 330.507 218.252C329.87 218.762 329.022 218.906 328.215 219.032C326.982 219.225 325.666 219.408 324.53 218.895C323.392 218.381 322.615 216.878 323.311 215.842C323.917 214.938 325.206 214.877 326.291 214.968ZM16.0736 209.131C15.1545 209.121 14.8365 210.349 14.8644 211.267C14.9445 213.907 15.4789 216.533 16.4371 218.995C16.7039 219.267 17.0136 218.699 16.9763 218.32L16.0736 209.131ZM192.689 215.929C192.116 216.24 191.897 217.064 192.241 217.618L192.255 217.639L192.243 217.653C192.228 217.671 192.211 217.693 192.193 217.719C191.962 218.068 192.286 218.622 192.704 218.593C192.986 217.734 192.981 216.784 192.689 215.929ZM180.743 212.192C181.987 212.467 183.336 213.499 183.027 214.735C182.822 215.554 181.961 216.034 181.137 216.217C180.313 216.4 179.443 216.388 178.655 216.694C177.655 217.082 176.449 216.275 176.244 215.222C176.037 214.168 176.683 213.068 177.614 212.535C178.546 212 179.695 211.96 180.743 212.192ZM187.94 37.8951C188.013 94.8576 189.322 151.819 191.865 208.726L192.133 214.609L192.173 212.717C192.246 208.293 192.182 203.869 192.117 199.445C191.358 147.594 190.598 95.7438 189.838 43.8927C189.807 41.7221 189.636 39.2513 187.94 37.8951ZM269.415 203.862C270.113 204.071 270.813 204.388 271.265 204.959C271.718 205.529 271.848 206.406 271.4 206.981C270.967 207.537 270.182 207.642 269.479 207.705L266.482 207.971C265.992 208.014 265.466 208.05 265.04 207.803C264.696 207.605 264.468 207.242 264.364 206.859C264.049 205.705 264.83 204.452 265.909 203.938C266.989 203.424 268.269 203.519 269.415 203.862ZM28.0134 159.273C24.8975 162.334 23.2768 166.566 21.7795 170.67C17.607 182.104 13.6418 194.242 15.7006 206.238C16.3372 206.355 16.6406 205.489 16.6879 204.844C17.5342 193.27 19.847 181.804 23.5534 170.808C24.9676 166.612 26.6685 162.351 29.8101 159.23C29.7669 158.47 28.5563 158.739 28.0134 159.273ZM411.068 184.287C410.525 184.42 410.173 184.933 409.889 185.415C407.208 189.965 405.945 195.337 406.32 200.606C406.474 202.78 407.174 205.285 409.205 206.078C410.857 204.493 412.508 202.907 414.16 201.322C414.422 201.07 414.69 200.81 414.836 200.476C415.198 199.642 414.68 198.711 414.204 197.936C411.851 194.106 410.082 189.252 412.043 185.207C412.287 184.703 411.612 184.153 411.068 184.287ZM445.384 179.378C445.121 179.515 444.917 179.743 444.72 179.966C439.845 185.479 435.137 191.14 430.603 196.938C429.657 198.149 428.669 199.515 428.762 201.049C428.845 202.413 429.804 203.601 430.967 204.318C432.13 205.036 433.485 205.363 434.814 205.679C435.17 205.764 435.556 205.847 435.89 205.698C436.198 205.562 436.393 205.26 436.571 204.974C439.346 200.499 442.16 195.936 443.471 190.836C443.751 189.749 444.693 188.989 445.447 188.157C446.927 186.521 447.795 184.343 447.844 182.139C447.862 181.392 447.774 180.604 447.342 179.995C446.909 179.385 446.046 179.032 445.384 179.378ZM326.651 201.204C327.323 201.37 328.064 201.625 328.365 202.247C328.896 203.346 327.65 204.49 326.485 204.851C325.582 205.13 324.575 205.227 323.708 204.849C322.842 204.47 322.185 203.515 322.381 202.589C322.73 200.948 325.022 200.8 326.651 201.204ZM181.855 198.806C182.172 199.09 182.466 199.425 182.586 199.833C182.828 200.654 182.254 201.561 181.467 201.899C180.68 202.237 179.761 202.106 178.968 201.782C178.132 201.442 177.318 200.791 177.212 199.895C177.091 198.871 178.019 197.927 179.04 197.78C180.061 197.631 181.087 198.118 181.855 198.806ZM272.207 189.799C273.022 190.131 273.107 191.363 272.545 192.041C271.983 192.717 271.046 192.942 270.169 193.017C269.293 193.09 268.386 193.058 267.567 193.379C266.308 193.872 264.94 192.351 265.239 191.033C265.539 189.715 266.954 188.896 268.304 188.833C269.655 188.77 270.956 189.289 272.207 189.799ZM325.254 187.817C326.41 187.873 327.552 188.177 328.583 188.701C329.03 188.928 329.493 189.242 329.62 189.727C329.882 190.727 328.629 191.413 327.613 191.607C326.714 191.78 325.801 191.883 324.886 191.915C323.756 191.954 322.393 191.736 321.944 190.699C321.594 189.894 322.02 188.906 322.735 188.397C323.451 187.888 324.378 187.774 325.254 187.817ZM399.722 114.043C392.982 115.131 386.214 116.032 379.425 116.746C374.507 117.263 369.876 120.052 367.12 124.158C366.554 125.001 366.164 126.347 367.038 126.864C369.513 124.01 372.871 121.933 376.531 120.994C377.838 120.659 379.27 120.476 380.504 121.025C381.737 121.575 382.618 123.088 382.06 124.317C381.203 126.205 378.47 125.677 376.4 125.551C370.645 125.2 365.668 131.787 367.577 137.228C368.917 132.034 376.332 129.779 380.488 133.17C384.644 136.56 384.136 144.007 379.691 147.009C378.222 148 376.336 148.692 375.665 150.333C375.091 151.74 375.644 153.329 376.196 154.745C377.061 156.967 377.926 159.19 378.791 161.412C380.605 166.072 382.533 170.902 386.205 174.296C389.029 176.906 392.691 178.459 396.427 179.369C409.896 182.652 425.059 177.428 433.647 166.545C434.336 165.673 435.906 166.5 436.029 167.604C436.151 168.708 435.396 169.701 434.65 170.524C430.804 174.756 425.957 178.073 420.619 180.124C418.096 181.093 415.097 182.143 414.322 184.732C413.679 186.876 415.031 189.246 416.971 190.361C418.912 191.478 421.277 191.572 423.502 191.328C427.94 190.844 432.234 189.106 435.761 186.37C436.83 185.541 437.866 184.571 438.341 183.304C438.79 182.104 438.688 180.777 438.579 179.5L438.484 178.402C438.068 173.642 437.529 168.825 435.588 164.471C434.654 162.377 433.405 160.414 432.717 158.227C431.87 155.529 431.921 152.635 431.352 149.865C430.781 147.095 429.339 144.218 426.702 143.197C427.398 141.428 429.136 140.315 430.261 138.781C431.387 137.248 431.552 134.57 429.781 133.877C428.934 133.546 427.969 133.831 427.162 134.251C423.759 136.017 421.924 140.341 423.016 144.016C423.729 146.414 419.941 148.023 417.901 146.574C415.861 145.126 415.358 142.368 414.956 139.898C413.396 130.326 410.267 120.007 402.092 114.788C401.377 114.333 400.558 113.909 399.722 114.043ZM181.141 181.943C182.215 182.291 183.287 183.257 183.063 184.365C182.852 185.412 181.647 185.902 180.594 186.082C179.101 186.338 177.153 186.045 176.733 184.589C176.334 183.204 177.784 181.876 179.217 181.724C179.864 181.656 180.522 181.742 181.141 181.943ZM353.51 162.005C352.508 162.955 352.02 164.311 351.565 165.614C350.537 168.555 349.496 171.58 349.614 174.693C349.691 176.697 348.528 178.501 347.698 180.326C346.869 182.152 346.419 184.49 347.72 186.015C350.826 183.403 351.572 179.006 352.255 175.005C353.072 170.222 354.182 165.264 357.276 161.525C356.193 160.669 354.512 161.056 353.51 162.005ZM271.65 175.336C272.449 175.593 273.354 176.107 273.364 176.947C273.376 177.969 272.119 178.438 271.114 178.622C270.61 178.715 270.106 178.807 269.602 178.899C268.319 179.133 266.943 179.359 265.749 178.831C264.556 178.302 263.761 176.691 264.541 175.644C265.044 174.967 265.971 174.782 266.813 174.73C268.444 174.629 270.094 174.835 271.65 175.336ZM154.906 160.582C156.311 161.254 157.882 162.577 157.362 164.045C142.89 160.89 127.429 162.45 113.879 168.434C107.782 171.126 102.06 174.686 95.7495 176.832C93.5911 177.567 91.2337 178.13 89.0534 177.465C86.8722 176.799 85.0542 174.485 85.6915 172.295C86.2904 170.241 88.5785 169.264 90.6062 168.578C100.598 165.194 110.765 162.326 121.051 159.986C132.274 157.433 144.523 155.615 154.906 160.582ZM362.705 160.409C361.671 160.404 360.802 161.163 360.123 161.941C358.475 163.829 357.303 166.094 356.431 168.445C355.348 171.364 354.709 174.448 354.539 177.557C357.532 172.409 360.731 167.382 364.127 162.491C364.717 161.642 363.738 160.413 362.705 160.409ZM344.368 169.579C344.084 169.58 343.785 169.591 343.545 169.743C343.006 170.085 343.082 170.883 343.241 171.5C343.748 173.46 344.45 175.368 345.333 177.19C345.863 174.623 346.714 172.124 347.86 169.767C346.701 169.635 345.534 169.572 344.368 169.579ZM117.595 162.964C109.028 165.597 100.462 168.23 91.8963 170.862C90.873 171.176 89.6858 171.662 89.4671 172.711C90.164 173.726 91.4908 174.158 92.7213 174.099C93.9518 174.039 95.1195 173.567 96.2603 173.101C104.951 169.549 113.641 165.999 122.331 162.448C120.779 162.014 119.135 162.491 117.595 162.964ZM207.989 167.77C207.529 168.568 206.572 168.906 205.854 169.483C205.137 170.061 204.716 171.305 205.473 171.828C206.633 170.666 207.794 169.505 208.954 168.343C208.714 168.045 208.366 167.838 207.989 167.77ZM298.371 167.151C304.597 167.8 310.88 168.131 317.118 167.593C318.731 167.455 320.661 167.389 321.619 168.696C320.411 169.927 318.509 170.076 316.786 170.149C310.312 170.427 303.838 170.704 297.364 170.981C296.101 171.035 294.502 170.875 294.092 169.679C293.769 168.737 294.503 167.699 295.423 167.321C296.343 166.943 297.381 167.048 298.371 167.151ZM394.636 160.348C396.142 162.181 396.692 164.759 396.064 167.047C395.91 167.611 395.684 168.165 395.323 168.626C394.376 169.835 392.627 170.192 391.133 169.835C389.64 169.477 388.361 168.526 387.221 167.496C386.046 166.436 384.943 165.226 384.379 163.747C383.815 162.268 383.882 160.468 384.882 159.242C385.706 158.231 387.039 157.745 388.339 157.65C390.706 157.477 393.128 158.515 394.636 160.348ZM184.733 164.609C185.327 165.089 185.228 166.088 184.72 166.659C184.212 167.231 183.438 167.475 182.695 167.66C181.819 167.879 180.897 168.05 180.019 167.841C179.14 167.632 178.316 166.95 178.208 166.054C178.051 164.753 179.412 163.735 180.707 163.531C182.12 163.308 183.62 163.709 184.733 164.609ZM387.741 160.78C387.082 161.633 387.515 163.175 388.584 163.321C389.82 163.49 390.781 164.787 390.582 166.018C390.425 166.984 391.603 167.791 392.538 167.501C393.473 167.211 394.014 166.163 393.993 165.185C393.972 164.206 393.505 163.294 392.976 162.471C392.392 161.564 391.678 160.683 390.693 160.24C389.709 159.799 388.401 159.925 387.741 160.78ZM384.453 73.0631C375.476 74.7073 366.583 78.6282 360.794 85.6825C355.004 92.736 353.002 103.293 357.528 111.218C359.127 114.018 361.57 116.46 364.64 117.446C367.711 118.432 371.424 117.706 373.473 115.215C375.797 112.39 380.488 115.1 383.985 114.028C388.823 112.544 393.851 111.684 398.907 111.473C400.106 111.423 401.342 111.416 402.461 111.85C403.675 112.321 404.635 113.265 405.558 114.184C408.757 117.372 412.023 120.653 413.918 124.753C416.922 131.257 416.179 139.186 419.974 145.262C420.417 141.452 420.861 137.642 421.304 133.832C421.469 132.418 421.652 130.95 422.416 129.75C423.181 128.549 424.708 127.707 426.046 128.192C428.406 129.05 430.863 129.97 432.556 131.823C434.25 133.676 434.877 136.766 433.249 138.677C431.675 140.523 433.46 143.193 434.296 145.471C435.743 149.417 434.041 153.926 435.179 157.973C436.121 161.324 438.844 163.827 441.446 166.141C442.207 166.818 443.094 167.54 444.108 167.447C444.957 167.37 445.639 166.737 446.219 166.112C449.676 162.385 452.044 157.659 452.96 152.659C453.33 150.642 452.628 147.703 450.595 147.978C451.151 143.137 455.601 139.84 458.214 135.727C461.033 131.292 461.698 125.838 461.827 120.584C461.956 115.305 461.441 109.567 457.922 105.628C453.695 100.896 445.481 100.542 440.863 104.894C439.711 105.978 438.194 107.412 436.821 106.627C437.897 104.696 438.974 102.765 440.05 100.834C441.804 97.6867 443.596 94.426 443.952 90.8413C444.656 83.7674 439.272 77.0705 432.612 74.5825C425.954 72.0953 418.436 73.1267 411.756 75.5592C410.082 76.1696 408.104 77.4793 408.558 79.2019C408.822 80.1998 409.832 80.802 410.35 81.6939C410.673 82.2504 410.641 82.4283 410.276 82.8779C410.055 83.1505 409.657 83.9371 409.3 83.7837C405.514 79.3977 401.417 74.8061 395.866 73.1479C392.186 72.048 388.231 72.3711 384.453 73.0631ZM341.444 163.514C340.971 163.234 340.065 163.05 340.153 163.593C340.409 164.921 341.605 165.909 342.895 166.316C344.186 166.722 345.571 166.653 346.922 166.581C347.45 166.552 348.014 166.511 348.434 166.19C348.787 165.921 348.98 165.498 349.16 165.092C349.467 164.397 349.775 163.702 350.083 163.008C347.572 161.373 344.022 165.042 341.444 163.514ZM268.941 158.976C269.997 159.056 271.045 159.24 272.065 159.526C272.949 159.774 273.964 160.291 274.007 161.207C274.065 162.413 272.496 162.906 271.292 163.011C270.067 163.116 268.843 163.222 267.618 163.328C266.726 163.405 265.717 163.445 265.06 162.835C264.179 162.016 264.535 160.427 265.489 159.695C266.443 158.963 267.742 158.887 268.941 158.976ZM297.583 158.715C303.44 159.499 309.377 159.687 315.273 159.278C315.965 159.229 316.718 159.189 317.288 159.584C317.857 159.98 317.998 160.999 317.378 161.306C317.189 161.399 316.971 161.409 316.761 161.417C309.634 161.686 302.507 161.955 295.379 162.224C294.729 162.249 294.014 162.252 293.514 161.836C292.619 161.091 293.133 159.498 294.158 158.947C295.185 158.397 296.429 158.56 297.583 158.715ZM354.456 152.909C352.18 153.032 349.865 153.242 347.764 154.125C345.663 155.007 343.778 156.668 343.15 158.859C343.023 159.304 342.975 159.85 343.316 160.163C343.583 160.406 343.982 160.409 344.342 160.395C348.122 160.247 351.886 159.684 355.544 158.72C357.362 158.241 359.555 157.085 359.309 155.22C359.18 154.239 358.333 153.471 357.397 153.146C356.462 152.821 355.445 152.856 354.456 152.909ZM91.9363 152.635C91.574 154.555 91.485 156.527 91.6744 158.472C92.1444 158.98 92.7629 157.988 92.7229 157.298C92.6323 155.721 92.368 154.154 91.9363 152.635ZM213.653 150.286C226.756 150.878 239.858 151.47 252.961 152.062C254.184 152.118 255.809 152.586 255.737 153.808C254.173 154.812 252.155 154.604 250.31 154.39C238.629 153.029 226.814 152.841 215.096 153.829C214.085 153.915 213.01 153.997 212.108 153.533C211.204 153.069 210.623 151.832 211.209 151.003C211.722 150.278 212.766 150.246 213.653 150.286ZM181.881 148.912C182.458 148.999 183.058 149.149 183.477 149.555C184.434 150.483 183.843 152.246 182.692 152.918C181.54 153.59 180.114 153.496 178.786 153.381C177.328 153.255 176.856 151.069 177.813 149.963C178.77 148.856 180.435 148.693 181.881 148.912ZM227.964 144.066C249.319 145.173 270.673 146.281 292.027 147.388C293.171 147.448 294.685 147.888 294.624 149.032C291.103 149.666 287.456 149.596 283.962 148.825L287.065 151.495C285.586 152.428 284.01 153.391 282.262 153.429C280.514 153.468 278.61 152.179 278.66 150.431C279.544 150.023 280.429 149.615 281.314 149.206C264.063 147.729 246.732 147.189 229.424 147.592C228.425 147.615 227.359 147.624 226.516 147.089C225.672 146.554 225.245 145.251 225.944 144.537C226.442 144.027 227.251 144.028 227.964 144.066ZM366.236 146.921C365.467 146.963 364.814 147.474 364.218 147.962C363.51 148.541 362.803 149.119 362.097 149.698C361.356 150.303 360.554 151.027 360.51 151.983C360.487 152.501 360.882 153.118 361.388 153.001C361.529 152.968 361.651 152.883 361.77 152.799C363.454 151.611 365.138 150.423 366.822 149.236C367.166 148.994 367.533 148.719 367.644 148.314C367.848 147.57 367.006 146.878 366.236 146.921ZM392.431 140.699C392.498 142.431 391.638 144.054 391.332 145.761C391.026 147.467 391.609 149.64 393.296 150.039C393.793 150.157 393.938 150.869 393.657 151.296C393.376 151.723 392.845 151.907 392.342 151.999C390.779 152.283 388.928 151.781 388.21 150.364C387.851 149.655 387.823 148.83 387.802 148.036C387.748 145.907 387.693 143.778 387.638 141.65C387.601 140.195 387.764 138.403 389.096 137.816C390.682 137.117 392.364 138.966 392.431 140.699ZM369.202 150.354C368.895 150.497 368.685 150.83 368.688 151.17L368.612 151.19C368.782 151.569 369.397 151.628 369.637 151.289C369.878 150.949 369.618 150.389 369.202 150.354ZM366.257 139.23C365.55 139.248 364.76 139.376 364.342 139.947C363.895 140.556 364.076 141.45 364.535 142.051C364.994 142.652 365.67 143.038 366.301 143.454C368.958 145.206 371.079 147.759 372.315 150.692C373.157 149.585 373.997 148.479 374.838 147.372C375.466 146.546 376.128 145.6 375.996 144.571C375.9 143.827 375.401 143.202 374.87 142.671C372.623 140.423 369.434 139.149 366.257 139.23ZM95.4255 122.108C94.4381 122.189 93.9257 123.298 93.6156 124.239C93.1423 125.672 92.6691 127.106 92.1966 128.54C91.6793 130.106 91.1587 131.69 91.0175 133.334C90.9228 134.422 90.9979 135.518 91.0722 136.609C91.3047 140.015 91.5365 143.421 91.769 146.826C91.8139 147.485 92.3149 148.394 92.8592 148.022C92.6332 139.321 93.4973 130.594 95.4255 122.108ZM374.757 134.631C373.861 134.973 372.909 135.573 372.779 136.523C372.649 137.474 374.049 138.356 374.591 137.565C375.284 136.555 377.016 137.082 377.588 138.164C378.16 139.246 377.992 140.548 377.984 141.773C377.975 142.997 378.257 144.401 379.324 145.001C379.503 143.363 379.682 141.725 379.861 140.088C380.082 138.066 380.069 135.559 378.292 134.569C377.229 133.977 375.895 134.198 374.757 134.631ZM403.544 133.706C404.999 133.771 406.552 134.278 407.348 135.498C408.144 136.718 407.722 138.716 406.319 139.108C404.318 139.669 402.447 136.849 400.49 137.549C399.267 137.987 398.512 139.708 397.235 139.461C396.445 139.308 396.006 138.36 396.164 137.57C396.321 136.78 396.911 136.147 397.543 135.646C399.226 134.313 401.399 133.61 403.544 133.706ZM180.728 132.266C182.13 132.492 183.504 134.028 182.764 135.241C182.556 135.582 182.219 135.824 181.866 136.009C180.991 136.47 179.913 136.626 179.009 136.225C178.106 135.823 177.471 134.781 177.715 133.824C178.023 132.62 179.502 132.067 180.728 132.266ZM405.825 124.28C406.791 125.198 407.542 126.926 406.462 127.705C405.319 128.529 403.949 127.138 402.855 126.25C401.634 125.258 399.978 124.82 398.424 125.077C397.431 125.243 396.495 125.675 395.499 125.819C394.503 125.964 393.343 125.735 392.8 124.887C392.229 123.999 392.591 122.74 393.376 122.033C394.161 121.326 395.251 121.067 396.303 120.971C399.753 120.655 403.315 121.893 405.825 124.28ZM180.68 121.467C181.54 121.972 182.005 123.163 181.526 124.039C180.892 125.196 179.232 125.18 177.952 124.862C177.49 124.748 177.005 124.596 176.7 124.232C175.971 123.363 176.788 122 177.806 121.498C178.701 121.056 179.818 120.962 180.68 121.467Z" fill="#00160A"/>
<path fill-rule="evenodd" clip-rule="evenodd" d="M65.0777 237.85C65.1952 238.177 65.3037 238.543 65.1691 238.863C64.9275 239.437 64.1417 239.46 63.5183 239.455C59.1356 239.42 55.0605 243.184 54.7496 247.556C54.7169 248.018 54.0821 248.23 53.6708 248.016C53.2604 247.802 53.049 247.34 52.907 246.899C52.1065 244.415 52.6222 241.63 53.8985 239.353C55.1755 237.076 57.1502 235.26 59.2963 233.773C60.1286 233.197 61.1658 232.643 62.1074 233.015C62.7292 233.262 63.1356 233.855 63.475 234.432C64.1132 235.519 64.6501 236.665 65.0777 237.85ZM62.5318 237.353C62.1458 236.172 60.5799 235.749 59.4106 236.166C58.2412 236.583 57.3885 237.577 56.5929 238.53C55.8381 239.434 55.049 240.42 54.9601 241.593C56.9764 239.458 59.6562 237.956 62.5318 237.353Z" fill="#FFB61D"/>
</svg>
