<svg width="537" height="462" viewBox="0 0 537 462" fill="none" xmlns="http://www.w3.org/2000/svg">
<path d="M217.792 71.3433C240.632 59.9812 258.81 40.2478 270.258 17.4505C271.758 14.4614 273.18 11.2854 273.128 7.94097C273.076 4.59662 271.129 1.0542 267.894 0.204832C263.258 -1.01235 259.271 3.43286 256.38 7.25616C236.519 33.5206 207.612 54.1394 174.992 58.6357C162.464 60.3631 149.744 59.7141 137.115 59.062L117.388 58.0434C101.499 57.2229 85.3898 56.4193 69.8375 59.7723C54.2851 63.1244 39.0884 71.188 30.5465 84.6104C27.8277 88.8825 25.7911 93.9168 26.5435 98.9252C27.3143 104.057 30.9622 108.412 35.3563 111.174C39.7503 113.934 44.8552 115.316 49.9144 116.471C53.6184 117.318 57.4017 118.067 61.1915 117.801C67.3884 117.364 73.0113 114.283 78.4827 111.285C78.8477 111.085 79.2113 110.886 79.5748 110.688C89.1376 105.47 99.0464 100.837 109.381 97.3945C124.453 92.3747 140.3 89.918 156.109 87.4674C177.405 84.1657 198.631 80.8756 217.792 71.3433Z" fill="#01ADB5"/>
<path d="M41.9566 412.96L41.9679 412.952C42.7218 412.405 43.4762 411.859 44.2349 411.323C56.2385 402.843 69.8759 396.686 84.174 393.29C89.626 391.994 95.4949 391.125 100.721 393.146C107.188 395.647 113.951 397.381 120.823 398.298C123.489 398.653 126.251 398.88 128.827 398.106C131.403 397.332 133.775 395.349 134.28 392.707C134.892 389.498 132.664 386.409 130.101 384.383C125.901 381.061 120.652 379.418 115.524 377.876C98.6965 372.815 81.4521 368.086 63.884 368.474C46.3164 368.862 28.1205 375.048 16.8728 388.548C12.9888 393.21 9.95538 398.866 9.72118 404.929C9.4859 410.992 12.5638 417.415 18.1088 419.876C22.5083 421.829 27.7093 421.068 32.1062 419.108C35.6491 417.528 38.8065 415.241 41.9566 412.96Z" fill="#01ADB5"/>
<path d="M355.464 253.982C359.603 255.122 363.311 258.569 363.719 262.844C364.504 261.144 366.228 259.915 368.092 259.728L365.386 262.603L368.81 262.671L364.099 265.302C367.019 270.703 366.546 277.365 364.674 283.212C363.529 286.792 361.872 290.377 362.195 294.121C362.512 297.804 365.783 301.566 369.357 300.812L369.537 300.77C373.833 299.685 378.538 300.313 382.399 302.489C387.947 305.614 391.312 311.418 395.124 316.517C398.49 321.019 402.473 325.205 407.453 327.813C412.432 330.421 418.538 331.282 423.724 329.116C426.298 328.042 428.603 326.264 431.333 325.697C434.064 325.132 436.863 326.65 437.866 329.238C438.309 330.383 437.356 334.625 434.925 339.58C435.32 339.466 435.734 339.393 436.167 339.365C448.941 338.536 461.834 335.758 472.828 329.199C476.323 327.114 479.587 324.671 482.828 322.208L484.716 320.769L485.86 319.888C492.971 314.38 499.991 308.238 502.916 299.859L503.068 299.407L503.393 298.417C504.018 296.543 504.811 294.604 506.621 294.022C509.126 293.217 511.407 295.641 512.929 297.787L523.903 313.257C524.184 313.654 524.472 314.065 524.58 314.54C525.055 316.643 521.918 317.705 519.896 316.958C516.219 315.601 513.268 311.557 509.41 312.25C506.698 312.739 505.078 315.364 503.738 317.837L503.399 318.469C495.279 333.671 481.615 345.833 465.574 352.136C461.439 353.761 457.167 355.006 452.901 356.249L444.284 358.759L445.802 359.029C458.66 361.284 472.378 362.661 484.055 356.962C491.829 353.169 497.818 346.638 503.468 340.038L505.517 337.629L506.363 336.622C509.83 332.463 513.125 328.01 514.136 322.739C514.525 320.715 517.08 319.749 519.067 320.298C521.054 320.846 522.567 322.418 523.975 323.924L534.641 335.341C535.482 336.241 536.366 337.233 536.489 338.458C536.613 339.683 535.514 341.069 534.332 340.725L522.766 337.366C521.68 337.051 520.479 336.743 519.457 337.225C518.674 337.596 518.169 338.354 517.721 339.103L505.286 360.103C501.784 366.016 495.295 369.444 488.919 372.008C473.628 378.158 457.036 381.047 440.566 380.428C438.778 380.36 436.987 380.252 435.219 379.973C428.576 378.927 422.576 375.549 416.766 372.132C417.785 375.857 416.878 379 410.828 379.238C405.469 379.45 392.344 357.387 388.262 356.242C365.982 349.995 362.324 337.662 355.167 329.238C355.167 329.238 340.702 331.107 331.152 329.116C308.766 324.449 293.722 310.092 288.298 309.178C282.874 308.265 279.298 311.741 277.623 309.632V308.104C277.882 307.684 280.474 305.262 287.867 306.835C298.191 309.032 314.695 317.324 327.299 318.872C340.53 320.498 351.737 318.346 351.676 317.985C351.55 317.248 354.875 314.118 352.219 312.537C349.561 310.956 310.986 295.473 302.602 282.572L302.501 282.411C301.06 280.018 299.965 274.072 302.865 276.794L303.677 275.354C306.801 278.299 317.055 285.032 327.708 291.669C338.971 298.687 354.876 303.181 355.167 302.984C361.648 298.6 355.9 295.427 354.827 294.495C352.316 292.313 348.981 291.124 346.818 288.599C341.628 282.539 345.334 271.701 339.402 266.366C338.505 265.559 337.416 264.924 336.765 263.907C335.651 262.164 336.199 259.739 337.549 258.172C338.898 256.605 340.872 255.729 342.825 255.047C346.879 253.631 351.324 252.841 355.464 253.982Z" fill="white"/>
<path d="M358.941 286.495C359.787 286.495 360.472 285.81 360.472 284.965C360.472 284.119 359.787 283.434 358.941 283.434C358.096 283.434 357.411 284.119 357.411 284.965C357.411 285.81 358.096 286.495 358.941 286.495Z" fill="#FFB61D"/>
<path d="M349.609 286.495C350.236 286.495 350.744 285.81 350.744 284.965C350.744 284.119 350.236 283.434 349.609 283.434C348.982 283.434 348.474 284.119 348.474 284.965C348.474 285.81 348.982 286.495 349.609 286.495Z" fill="#FFB61D"/>
<path d="M294.14 292.382C279.908 288.702 264.952 287.852 250.395 289.898C251.496 284.458 252.875 279.074 254.524 273.774C249.788 275.302 244.196 270.962 244.503 265.994C244.809 261.027 250.891 257.406 255.404 259.504C256.954 255.928 257.053 251.746 255.672 248.1C255.01 246.351 257.649 245.342 259.519 245.342L269.853 245.34C271.298 245.339 273.311 244.668 272.952 243.269C272.102 239.951 274.383 236.16 277.713 235.358C280.983 234.571 284.664 236.81 285.508 240.055L285.553 240.236C286.337 243.721 290.751 244.827 294.322 244.759L296.1 244.716C299.189 244.651 302.408 244.751 304.475 246.912C306.948 249.496 306.395 253.611 305.58 257.119L305.526 257.351C304.371 262.221 303.139 267.072 301.832 271.903C304.371 292.331 298.085 293.402 294.14 292.382Z" fill="white"/>
<path d="M175.442 275.327C173.933 265.508 173.936 255.459 175.448 245.64L175.525 245.165C175.9 242.937 176.559 240.585 178.421 239.358C179.815 238.439 181.575 238.37 183.254 238.369L196.108 238.405C196.693 238.406 197.334 238.428 197.774 238.814C198.214 239.199 198.202 240.085 197.638 240.242C196.292 240.614 195.518 242.167 195.681 243.554C195.845 244.942 196.747 246.143 197.807 247.054C200.333 249.226 204.261 249.997 207.057 248.187C209.854 246.376 210.512 241.71 207.861 239.691C213.866 239.569 219.873 239.588 225.876 239.748L228.127 239.814C228.855 239.838 229.659 239.896 230.167 240.417C230.549 240.808 230.675 241.377 230.76 241.916C231.425 246.073 230.698 250.439 228.723 254.155C228.408 254.747 227.68 255.399 227.183 254.949C225.074 253.034 221.527 253.294 219.368 255.154C217.21 257.014 216.375 260.102 216.757 262.925C217.124 265.642 219.104 268.544 221.843 268.407C224 268.3 226.399 266.414 228.028 267.83L225.283 280.099C224.794 282.279 223.919 284.864 221.735 285.331C209.127 288.028 195.907 287.825 183.388 284.74L182.78 284.587C181.261 284.189 179.748 283.674 178.562 282.66C176.499 280.893 175.854 278.011 175.442 275.327Z" fill="white"/>
<path d="M274.361 179.047L304.829 179.659L305.327 179.672C306.242 179.701 307.163 179.781 307.988 180.165C309.85 181.035 310.704 183.178 311.27 185.153C314.293 195.7 313.921 207.192 310.219 217.52L310.063 217.943C309.582 219.213 308.952 220.481 307.815 221.196C306.878 221.784 305.737 221.907 304.626 221.966L304.389 221.978C299.858 222.193 295.312 222.077 290.798 221.632C293.149 220.185 293.743 216.661 292.25 214.339C290.757 212.017 287.604 211.047 284.948 211.802C283.329 212.261 281.822 213.368 281.236 214.945C280.65 216.522 281.216 218.548 282.713 219.318C283.747 219.851 283.569 221.529 282.663 222.259C281.757 222.99 280.498 223.042 279.334 223.061L264.048 223.309C262.899 223.327 261.69 223.332 260.682 222.781C259.251 222.001 258.594 220.32 258.191 218.74C257.218 214.931 257.087 210.909 257.808 207.044C258.677 210.096 262.439 211.95 265.389 210.779C268.339 209.608 269.807 205.68 268.347 202.862C266.886 200.044 262.831 198.978 260.173 200.713L260.063 199.728C259.681 196.276 259.385 192.779 260.048 189.378C260.774 185.655 262.845 181.998 266.241 180.305C268.718 179.071 271.578 179.003 274.361 179.047Z" fill="white"/>
<path d="M181.951 213.323C177.661 213.339 173.369 213.163 169.095 212.794L168.68 212.756C167.149 212.602 165.544 212.296 164.541 211.158C163.187 209.621 163.517 207.305 163.924 205.278L163.965 205.077C165.782 196.184 166.495 187.066 166.086 177.999L166.009 176.435C165.895 173.624 166.075 170.436 168.41 168.991C169.121 168.551 169.945 168.346 170.768 168.181L171.041 168.127C185.994 165.214 201.561 165.509 216.392 168.986C218.345 169.445 218.888 172.09 218.241 173.988C217.593 175.886 216.202 177.482 215.682 179.419C215.162 181.356 216.116 183.979 218.12 184.042C222.293 184.173 225.829 188.411 225.268 192.548C224.708 196.684 220.237 199.821 216.144 199C215.183 198.807 214.844 200.227 214.949 201.201L216.117 211.999C216.308 213.762 213.807 214.318 212.039 214.181L201.728 213.378C200.108 213.252 197.935 213.532 197.686 215.137C197.064 219.135 192.965 222.256 188.946 221.793C184.927 221.33 181.647 217.357 181.951 213.323Z" fill="white"/>
<path fill-rule="evenodd" clip-rule="evenodd" d="M154.196 279.777C155.34 280.056 156.978 280.549 156.887 281.632C155.057 303.437 147.175 299.424 140.147 305.676C138.29 307.328 137.181 311.236 136.383 311.325C139.34 312.691 143.633 318.171 151.019 318.422C171.602 319.119 179.093 304.102 179.093 304.102C179.576 299.286 177.134 290.614 180.182 293.043C182.287 294.719 181.871 286.553 184.745 287.366C185.609 287.61 184.1 293.04 184.745 293.364C185.101 293.544 185.629 292.063 186.548 290.886C187.315 289.904 188.497 289.177 188.742 289.391C188.907 289.537 188.749 290.94 188.058 292.127C187.088 293.797 185.466 295.402 185.693 295.67C185.942 295.965 190.221 291.984 190.482 292.331C192.213 294.641 181.248 321.22 162.746 326.238L161.28 326.632C150.495 329.497 145.965 329.888 135.972 326.238C131.234 324.507 128.287 340.673 125.653 346.053C123.99 349.449 115.913 357.775 112.225 355.258C107.359 351.936 103.39 345.753 99.2492 342.625L98.9829 342.43C96.1611 340.406 89.7774 337.335 79.8327 333.217L80.2812 333.01C82.356 332.067 87.6996 329.761 91.8033 326.238C97.6336 321.232 100.792 310.479 104.856 304.68C108.869 298.955 114.254 299.798 111.005 298.785C111.005 298.785 102.769 294.422 98.9829 294.022C86.3388 292.688 69.8566 298.664 64.5834 302.515C57.3486 307.798 64.5368 315.574 54.54 311.763C51.2083 310.493 60.1384 294.038 72.4564 287.366C89.5777 278.092 105.767 275.541 121.998 290.304C128.604 296.312 129.257 301.66 131.028 305.737L130.666 304.739C150.246 303.448 120.909 283.844 145.401 278.938C147.973 278.423 150.673 278.96 153.251 279.556L154.196 279.777Z" fill="white"/>
<path d="M141.587 294.914C142.432 294.914 143.117 294.229 143.117 293.383C143.117 292.538 142.432 291.853 141.587 291.853C140.741 291.853 140.056 292.538 140.056 293.383C140.056 294.229 140.741 294.914 141.587 294.914Z" fill="#FFB61D"/>
<path d="M150.005 297.975C150.851 297.975 151.536 297.29 151.536 296.445C151.536 295.599 150.851 294.914 150.005 294.914C149.16 294.914 148.475 295.599 148.475 296.445C148.475 297.29 149.16 297.975 150.005 297.975Z" fill="#FFB61D"/>
<path fill-rule="evenodd" clip-rule="evenodd" d="M61.1448 352.744C77.7364 364.233 56.5083 348.364 74.6361 367.275C78.2967 371.094 96.8315 349.283 98.7441 362.209C99.4413 366.924 97.9206 371.832 98.8474 376.507C99.713 380.869 118.686 378.25 120.151 376.342C125.464 369.426 108.931 351.66 105.464 348.82C86.1191 332.973 79.7347 334.072 61.6591 350.468L61.1448 352.744Z" fill="white"/>
<path fill-rule="evenodd" clip-rule="evenodd" d="M492.749 65.585C496.003 65.9745 499.029 66.3358 499.029 62.5428C499.029 61.6404 488.077 53.7131 484.832 56.766C480.658 60.6922 477.344 65.1939 474.133 69.5548C467.394 78.7089 461.113 87.2408 448.305 88.5121L448.151 88.5289C443.187 89.1281 452.436 93.5342 462.823 88.5121C469.964 85.0581 479.466 74.1322 483.979 68.9433C485.16 67.5848 486 66.6197 486.366 66.2845L486.46 66.2034C487.998 65.0171 490.432 65.3079 492.749 65.585ZM508.2 75.8504L519.036 84.452C521.147 86.128 518.675 89.7389 515.985 89.9119C514.424 90.0129 512.928 89.5322 511.423 89.0493C510.335 88.7003 509.242 88.3498 508.119 88.2166C501.755 87.4643 496.903 93.4576 492.955 98.5058C489.348 103.118 485.397 107.463 481.147 111.493L480.573 112.033L479.974 112.584C476.556 115.691 472.722 118.506 468.213 119.317C461.572 120.512 454.976 117.112 449.552 113.1C448.229 112.12 446.929 111.093 445.628 110.065C441.6 106.882 437.566 103.693 432.788 101.906C428.649 104.165 424.775 106.895 421.236 110.008L421.394 109.884C427.334 115.838 431.487 123.551 433.189 131.787L432.052 131.588L431.302 131.46C424.283 130.283 416.766 129.587 410.835 133.342C408.745 134.666 406.88 136.515 405.037 138.342C403.753 139.615 402.48 140.877 401.148 141.945C401.486 142.147 401.832 142.356 402.186 142.573C408.751 145.258 415.708 146.977 422.766 147.659C423.845 147.763 424.936 147.846 426.029 147.929C431.092 148.314 436.22 148.703 440.547 151.245L442.065 152.152C444.5 153.594 447.211 154.966 449.251 153.297C449.838 152.816 450.222 152.159 450.608 151.497C450.843 151.095 451.077 150.692 451.36 150.327C452.105 149.361 453.584 148.682 454.511 149.475L454.887 152.424C455.16 150.527 456.99 148.985 458.906 149.038C460.822 149.091 462.564 150.733 462.731 152.642C463.034 156.108 459.104 158.183 455.769 159.285L438.481 164.857C432.304 166.848 425.456 165.817 419.501 163.236C413.957 160.834 409.065 157.177 404.391 153.333L403.355 152.477C399.825 149.54 395.054 146.348 391.049 148.595C398.008 149.019 403.083 155.016 407.234 160.688L407.633 161.236C408.305 162.162 408.996 163.137 409.162 164.269C409.627 167.439 406.027 169.542 402.985 170.55C405.548 171.923 404.278 175.909 402.293 178.032C399.404 181.12 395.621 183.343 391.54 184.444L391.167 185.733C391.143 185.82 391.133 185.866 391.135 185.867C393.06 185.733 394.247 188.319 393.462 190.082C392.679 191.844 390.743 192.783 388.887 193.308C382.768 195.038 375.858 193.673 370.857 189.747L369.885 190.255C365.659 192.441 361.289 194.475 356.593 195.164C351.535 195.907 345.968 194.864 342.312 191.292L342.553 191.818C343.07 192.965 343.534 194.151 343.551 195.401C343.57 196.842 342.824 198.399 341.459 198.861C339.206 199.624 337.237 197.216 336.068 195.144C335.427 196.739 336.088 198.534 336.73 200.279C337.463 202.27 338.172 204.196 336.898 205.687C335.572 207.24 333.055 206.843 331.23 205.926C324.392 202.496 321.18 193.863 322.661 186.358C324.142 178.854 329.539 172.569 335.964 168.418C331.602 165.221 328.411 160.46 327.11 155.209C327.456 155.656 329.003 154.218 331.2 152.176C335.22 148.44 341.416 142.681 346.422 142.735C347.381 142.745 348.93 143.487 350.446 144.214H350.447C351.545 144.74 352.627 145.258 353.456 145.485C353.525 145.397 353.608 145.317 353.704 145.246L352.757 144.566C350.852 143.213 348.863 141.94 346.606 141.379C343.974 140.725 340.858 141.263 339.181 143.394C335.081 148.607 329.885 152.954 324.032 156.071L327.502 162.478C326.068 163.163 324.281 163.037 322.95 162.173L322.786 162.061L322.889 162.19C324.888 164.797 323.131 169.341 319.86 169.857C316.54 171.25 313.191 167.089 313.518 163.503C313.747 160.99 314.992 158.763 316.24 156.532C316.771 155.579 317.304 154.626 317.759 153.65C319.294 150.351 319.969 146.687 320.64 143.045C321.559 138.054 322.47 133.108 325.577 129.207C327.754 126.475 330.802 124.575 333.927 123.017C346.334 116.833 361.015 115.355 374.406 118.94C376.686 110.769 381.207 103.236 387.345 97.38L387.711 97.0363C390.059 94.8727 392.98 92.9403 396.094 93.2954L396.341 93.3283C399.433 93.7998 402.121 91.4134 404.369 89.2047L405.063 88.5243L405.605 88.0008C410.066 83.7402 415.245 79.8087 421.339 79.3847C426.761 79.0074 431.95 81.4963 436.63 84.2599C441.924 87.387 446.961 90.9504 451.671 94.9034L452.498 95.6052L452.741 95.8126L453.01 96.0437L453.165 96.1769C457.606 99.9921 462.466 104.167 468.249 103.821C474.176 103.466 478.507 98.5448 482.497 94.011L482.498 94.0094L482.501 94.0079C482.822 93.6421 483.142 93.2786 483.46 92.9204C488.383 87.3794 493.988 82.5004 499.662 77.7216L502.095 75.6782C502.832 75.0613 503.625 74.4184 504.577 74.2945C505.918 74.1207 507.14 75.01 508.2 75.8504ZM401.057 169.78C399.853 169.541 398.209 169.646 396.127 170.095C397.498 170.1 398.652 170.076 399.59 170.022C400.044 169.966 400.495 169.895 400.939 169.806L401.057 169.78ZM356.436 143.248C356.875 142.797 357.339 142.322 357.853 141.915C358.81 141.41 359.887 141.155 360.972 141.257C364.643 141.606 367.423 145.51 366.943 149.167C365.005 153.969 360.209 156.709 355.466 159.419C352.544 161.088 349.642 162.746 347.441 164.869C347.993 163.957 348.598 163.23 349.211 162.783C351.126 161.389 353.127 160.182 355.014 159.044C356.599 158.087 358.105 157.179 359.407 156.252C361.458 154.791 362.835 153.405 363.901 152.329H363.902C364.717 151.507 365.353 150.868 365.968 150.518C366.018 150.49 368.332 145.8 362.74 142.735C358.517 140.421 356.635 143.348 355.624 144.922C355.296 145.432 355.06 145.8 354.864 145.8C354.814 145.8 354.743 145.792 354.655 145.777C354.795 145.278 355.007 144.795 355.279 144.344C355.657 144.045 356.037 143.657 356.436 143.248ZM357.629 142.039C356.669 142.595 355.845 143.403 355.279 144.344L355.14 144.45C354.861 144.652 354.582 144.801 354.293 144.869C353.713 145.006 352.329 143.944 351.156 143.044C350.455 142.507 349.83 142.027 349.497 141.896C347.305 141.037 347.048 141.025 345.528 140.953C345.271 140.94 344.979 140.927 344.634 140.907L344.004 140.867C343.866 140.859 343.713 140.853 343.551 140.846C342.291 140.794 340.478 140.717 340.84 139.737C347.316 122.209 374.987 118.395 370.411 138.209C370.033 139.847 369.04 141.281 368.046 142.715C367.55 143.432 367.053 144.149 366.634 144.892C364.846 142.351 362.897 141.012 360.789 140.874C359.613 140.797 358.67 141.269 357.853 141.915L357.629 142.039ZM407.821 126.314L407.827 126.304C406.304 129.199 404.668 132.683 402.921 136.756C404.235 133.137 405.882 129.64 407.821 126.314ZM420.158 128.984L419.946 128.991C418.258 129.062 416.743 129.315 415.402 129.75C413.915 130.232 412.332 131.038 410.653 132.167C413.591 130.541 416.836 129.453 420.158 128.984Z" fill="white"/>
<path fill-rule="evenodd" clip-rule="evenodd" d="M333.82 202.396C332.493 203.949 330.57 203.448 328.809 201.731C325.123 198.137 323.641 191.203 325.123 183.697C326.604 176.192 332.377 173.1 338.803 168.95C335.919 167.762 330.696 160.232 330.172 152.914C331.949 155.208 332.042 159.324 333.82 161.617C335.506 163.794 338.877 166.443 340.563 168.619C340.778 168.897 340.964 169.364 340.659 169.538C334.498 173.037 330.507 174.195 326.873 183.697C323.24 193.2 330.616 201.99 331.597 201.731C332.804 201.412 332.377 199.81 331.683 198.771C329.726 195.841 331.588 191.935 333.182 188.793C334.035 189.749 331.985 192.491 332.417 195.342C332.839 198.125 335.001 201.014 333.82 202.396Z" fill="#E7EAEE"/>
<path d="M358.941 172.461C359.787 172.461 360.472 171.775 360.472 170.93C360.472 170.085 359.787 169.399 358.941 169.399C358.096 169.399 357.411 170.085 357.411 170.93C357.411 171.775 358.096 172.461 358.941 172.461Z" fill="#FFB61D"/>
<path d="M353.584 166.338C354.429 166.338 355.115 165.653 355.115 164.807C355.115 163.962 354.429 163.277 353.584 163.277C352.739 163.277 352.053 163.962 352.053 164.807C352.053 165.653 352.739 166.338 353.584 166.338Z" fill="#FFB61D"/>
<path d="M124.68 179.839C125.566 181.49 124.175 183.852 122.301 183.879C120.697 174.858 118.966 165.526 113.745 157.997C103.749 143.584 83.1474 138.85 74.5886 123.538C68.7606 127.686 59.8491 126.628 55.1538 121.232C52.2338 117.876 47.1438 117.463 42.7585 118.212C38.3733 118.961 34.089 120.616 29.6426 120.475C27.7132 120.414 25.611 119.895 24.4881 118.326C23.3653 116.755 24.0139 113.992 25.9248 113.718C34.2497 112.527 42.5746 111.335 50.8995 110.143C51.5532 110.05 52.2469 109.938 52.7433 109.503C53.3048 109.01 53.4812 108.222 53.6268 107.489C54.832 101.424 55.7004 94.1931 51.2341 89.9157C47.5325 86.3714 41.6903 86.4931 36.6615 87.4819C31.6326 88.4715 26.4499 90.0986 21.4939 88.7922C16.5378 87.4865 12.3932 81.5996 15.0649 77.2257C16.8544 74.296 14.8366 70.3897 12.0764 68.3486C9.31611 66.3082 5.88098 65.3033 3.20553 63.1527C0.53008 61.0014 -1.16789 56.8517 0.963181 54.1608C1.90041 52.9776 3.36793 52.3539 4.80768 51.8993C9.5728 50.3962 14.886 50.2821 19.4793 52.2483C24.0724 54.2152 27.8025 58.4306 28.55 63.3709C29.1589 67.3957 28.0018 72.0781 30.6626 75.1585C34.1411 79.1865 40.5706 76.9272 45.8924 76.879C51.3354 76.8292 56.7177 79.7153 59.6884 84.2759C62.6594 88.8373 63.1239 94.9263 60.8784 99.8849C67.2009 93.4523 75.716 88.5174 84.7293 88.8534C93.0546 89.1641 100.704 93.9528 106.272 100.15C111.84 106.347 115.638 113.894 119.363 121.346C120.75 124.122 124.27 125.627 127.236 124.712C130.202 123.796 132.261 120.57 131.843 117.494C134.428 118.058 134.697 121.551 134.777 124.196C134.944 129.751 136.956 135.236 140.42 139.582C141.579 137.444 142.464 135.158 143.045 132.796C145.573 135.703 146.517 139.911 145.472 143.62C144.426 147.329 141.424 150.424 137.749 151.583C135.794 152.2 133.402 152.496 132.432 154.303C136.099 160.724 139.253 167.438 141.855 174.36C143.249 178.072 144.255 182.848 141.32 185.513C137.925 183.007 135.996 179.032 134.195 175.216C131.386 169.264 128.577 163.312 125.767 157.36" fill="white"/>
<path fill-rule="evenodd" clip-rule="evenodd" d="M133.947 120.26C133.209 127.467 135.907 134.95 141.074 140.03C142.916 138.918 144.095 136.784 144.053 134.633C145.99 137.816 144.905 142.133 142.497 144.977C140.09 147.821 136.636 149.526 133.284 151.153C131.363 152.085 129.37 153.037 127.235 153.1C123.979 153.197 121.063 151.24 118.401 149.362L110.591 143.856C114.626 151.386 123.81 155.77 132.203 154.173C138.039 162.36 141.612 172.143 142.427 182.164L140.858 179.265C140.844 179.23 140.825 179.195 140.801 179.16L140.858 179.265C141.084 179.821 140.202 180.436 139.608 180.148C138.977 179.843 138.739 179.082 138.552 178.407C136.255 170.075 132.137 162.25 126.571 155.639L134.999 173.495C136.8 177.311 138.729 181.286 142.123 183.792C145.06 181.127 144.053 176.352 142.658 172.64C140.057 165.717 136.903 159.004 133.236 152.582C134.024 151.116 135.749 150.644 137.416 150.189H137.417C137.802 150.083 138.186 149.979 138.553 149.863C142.228 148.704 145.23 145.608 146.275 141.899C147.321 138.191 146.377 133.983 143.848 131.075C143.267 133.436 142.383 135.723 141.224 137.861C137.759 133.515 135.748 128.031 135.58 122.475C135.501 119.831 135.231 116.337 132.647 115.774C133.065 118.849 131.005 122.076 128.039 122.991C125.074 123.906 121.554 122.401 120.167 119.625C116.442 112.173 112.643 104.626 107.075 98.4285C101.508 92.2316 93.8582 87.4436 85.5329 87.1329C76.5196 86.7969 68.0045 91.7318 61.682 98.1644C63.9275 93.2058 63.463 87.1161 60.4927 82.5554C57.5215 77.9948 52.1391 75.1088 46.6961 75.1585C45.3155 75.1708 43.8602 75.3322 42.4013 75.4937C38.2369 75.956 34.0424 76.4205 31.4663 73.438C29.6468 71.3311 29.6127 68.4756 29.5781 65.5934C29.5622 64.2609 29.5462 62.9223 29.3537 61.6504C28.6062 56.7101 24.8762 52.4947 20.283 50.5278C15.6898 48.5609 10.3765 48.6757 5.61142 50.1788C4.17168 50.6334 2.70415 51.2564 1.76692 52.4403C-0.364148 55.1313 1.33382 59.2809 4.00927 61.4315C5.41733 62.5634 7.03586 63.3785 8.65569 64.1936C10.1136 64.9275 11.5725 65.6615 12.8801 66.6281C15.6403 68.6692 17.6581 72.5755 15.8686 75.5052C13.1969 79.8791 17.3416 85.766 22.2976 87.0717C26.3944 88.1516 30.6463 87.2263 34.838 86.3148C35.717 86.1234 36.5935 85.9329 37.4652 85.7614C42.4941 84.7726 48.3362 84.6502 52.0378 88.1952C56.5041 92.4726 55.6357 99.7027 54.4306 105.769C54.2849 106.501 54.1085 107.289 53.547 107.782C53.0508 108.218 52.357 108.33 51.7032 108.423L26.7286 111.998C24.8177 112.271 24.169 115.035 25.2919 116.605C26.4148 118.175 28.5169 118.694 30.4463 118.755C33.3964 118.848 36.275 118.151 39.1591 117.452C40.6221 117.098 42.0864 116.744 43.5622 116.492C47.9475 115.743 53.0375 116.154 55.9576 119.511C60.6527 124.907 69.5642 125.965 75.3922 121.817C79.8962 129.874 87.734 135.002 95.607 140.154C102.695 144.792 109.812 149.448 114.549 156.277C119.77 163.805 121.5 173.138 123.105 182.157C124.978 182.131 126.37 179.77 125.485 178.118L123.725 180.44C123.074 166.224 115.813 152.447 104.454 143.875C101.642 141.752 98.5566 139.891 95.4784 138.034C88.7144 133.954 81.9825 129.893 78.2377 123.115C77.9002 122.504 77.5864 121.858 77.5313 121.163C77.4624 120.283 77.813 119.435 78.1512 118.616L78.1995 118.5C79.5495 115.224 80.4932 111.631 79.8296 108.151C79.1668 104.671 76.5471 101.381 73.0434 100.857C78.974 104.651 80.1893 114.064 75.4175 119.239C70.6449 124.415 61.1639 123.965 56.9031 118.361C53.4885 113.87 46.6603 114.42 41.1641 115.694C35.668 116.967 29.1957 118.3 24.9499 114.585C34.0335 112.087 43.3805 110.55 52.7854 110.006C55.0259 109.876 55.9048 107.081 56.2065 104.857C56.6704 101.439 57.1343 97.9647 56.6261 94.5528C56.1178 91.1402 54.496 87.7368 51.6005 85.8609C48.1233 83.6085 43.6345 83.9575 39.5142 84.3892L28.5644 85.5349C26.2051 85.7813 23.7804 86.0239 21.4929 85.3956C19.2053 84.7673 17.053 83.0613 16.6144 80.7301C16.3374 79.2576 16.7589 77.8081 17.1839 76.3463C17.4899 75.294 17.7975 74.2355 17.8477 73.1579C17.9906 70.0897 16.0087 67.2786 13.6005 65.3729C12.1249 64.205 10.4809 63.2859 8.83523 62.3667C7.79492 61.7851 6.75399 61.2034 5.75469 60.5582C3.87365 59.3436 1.94364 57.3813 2.46667 55.204C2.80112 53.8118 4.06101 52.8467 5.32771 52.1794C9.60424 49.9247 14.9498 49.8237 19.3087 51.9138C23.6677 54.0047 26.9349 58.237 27.8539 62.9828C28.0806 64.1538 28.1837 65.3768 28.2865 66.5975C28.5244 69.42 28.7611 72.2296 30.5249 74.3511C32.6318 76.8843 36.2731 77.5226 39.5646 77.3657C40.6931 77.3121 41.8215 77.1859 42.9489 77.0596C45.1098 76.8177 47.2674 76.5759 49.4157 76.8461C56.6399 77.756 62.3318 85.2724 61.2489 92.4726C61.1892 92.8714 61.1119 93.2732 61.0346 93.6757C60.759 95.1123 60.4805 96.5626 60.971 97.9111C61.5994 99.6392 64.3469 100.559 65.2179 98.9397C69.1188 91.6859 78.0671 88.0306 86.2477 88.9888C94.4283 89.947 101.75 94.8727 107.121 101.118C112.491 107.362 116.145 114.877 119.477 122.409C120.651 125.063 124.145 126.023 126.937 125.234C129.729 124.445 131.944 122.358 133.947 120.26ZM119.287 132.902C119.367 132.891 119.55 133.251 119.828 133.795C120.511 135.132 121.76 137.575 123.406 138.319C123.333 139.012 122.244 138.641 121.791 138.112C120.503 136.607 119.137 134.877 119.287 132.902ZM123.174 144.776C124.024 146.021 118.934 146.641 117.242 145.555C117.54 145.497 117.933 145.528 118.367 145.562C118.883 145.601 119.458 145.646 120.004 145.555C120.804 145.42 121.576 145.174 122.159 144.989C122.725 144.809 123.112 144.686 123.174 144.776ZM121.952 140.148C119.926 140.495 117.437 137.796 117.437 135.259C118.021 137.135 120.095 138.624 121.242 139.446C121.825 139.864 122.168 140.111 121.952 140.148ZM129.211 150.76C126.513 150.76 125.29 146.21 126.513 145.917C126.805 145.785 126.819 146.192 126.839 146.794C126.861 147.427 126.889 148.275 127.257 148.935C127.666 149.668 128.532 150.158 129.037 150.444C129.419 150.661 129.595 150.76 129.211 150.76ZM132.217 144.564C132.81 144.89 133.35 145.397 133.504 146.055C133.657 146.714 133.289 147.513 132.626 147.65C132.419 147.346 132.531 147.151 132.65 146.947C132.824 146.647 133.012 146.324 132.217 145.592C131.883 145.284 131.493 145.15 131.22 145.056C131.011 144.984 130.869 144.935 130.874 144.849C130.909 144.302 131.737 144.299 132.217 144.564ZM127.166 138.634C127.033 138.728 126.941 138.791 127.02 138.865C127.263 139.091 127.55 139.2 127.837 139.035C128.056 138.909 128.167 138.655 128.219 138.408C128.506 137.03 127.051 135.605 125.678 135.924C125.8 136.245 126.034 136.348 126.316 136.472C126.643 136.616 127.035 136.789 127.4 137.36C127.892 138.13 127.441 138.444 127.166 138.634ZM126.705 151.631C125.116 151.168 123.545 147.416 124.39 147.131C124.918 146.954 124.915 146.983 124.885 147.28C124.856 147.551 124.805 148.048 125.116 148.819C125.502 149.775 126.043 150.551 126.387 151.045C126.623 151.383 126.767 151.59 126.705 151.631ZM490.638 66.4368C487.227 66.8562 484.538 69.6075 482.843 72.5969C482.023 74.0419 481.367 75.5718 480.711 77.1009L480.71 77.1017C480.01 78.7357 479.309 80.3689 478.41 81.8988C474.117 89.1993 465.962 93.189 458.146 96.4501C456.798 97.0126 454.438 96.7478 454.858 95.3495C467.654 92.9219 478.67 82.7904 482.158 70.242C482.569 68.7641 480.646 67.5159 479.162 67.907C477.82 68.2606 476.864 69.3802 476.001 70.4915L475.732 70.8413C468.604 80.1117 458.373 87.9487 446.69 88.4554C445.863 88.4906 444.68 87.9863 445.044 87.2431C453.696 86.9531 461.853 82.6817 468.278 76.879C474.704 71.0762 479.603 63.8025 484.187 56.4576C484.896 55.3218 486.598 55.5644 487.866 55.9969C491.755 57.3232 495.486 59.1118 498.955 61.3136C500.818 62.4961 499.342 65.65 497.225 66.2684C496.008 66.6243 494.737 66.5378 493.461 66.4513C492.516 66.387 491.569 66.3227 490.638 66.4368ZM487.314 59.2028L487.015 59.1125C486.105 58.8515 485.089 58.7061 484.356 59.2717C484.073 59.4906 483.869 59.7929 483.682 60.1013L481.247 64.2073C482.526 64.5028 483.75 65.027 484.848 65.7464C485.744 66.3342 486.979 66.3572 487.896 65.8023C488.813 65.2474 489.366 64.1431 489.262 63.0762C489.222 62.6782 489.875 62.5703 490.147 62.8627C490.351 63.0815 490.411 63.3815 490.472 63.6808V63.6816C490.492 63.7826 490.513 63.8828 490.539 63.9808C490.641 64.3673 490.957 64.7829 491.349 64.7041C491.746 64.326 491.963 63.7665 491.925 63.2201C492.067 62.656 492.947 63.1588 493.084 63.7244C493.22 64.29 493.475 65.0944 494.037 64.9436C494.863 64.7393 495.123 63.589 494.721 62.8397C494.318 62.0897 493.508 61.6664 492.736 61.3083C490.976 60.4924 489.164 59.7891 487.314 59.2028ZM479.913 65.8781C481.184 67.1577 483.035 67.8381 484.832 67.6881C483.73 66.3013 481.856 65.5765 480.107 65.8444L479.913 65.8781ZM388.887 193.308C382.768 195.038 375.858 193.673 370.857 189.747C366.33 192.12 361.65 194.421 356.592 195.164C351.535 195.907 345.968 194.864 342.312 191.292C342.916 192.6 343.532 193.959 343.551 195.4C343.57 196.842 342.824 198.398 341.459 198.861C339.206 199.624 337.237 197.215 336.068 195.144C335.427 196.739 336.088 198.534 336.73 200.279C337.463 202.27 338.172 204.196 336.898 205.687C335.572 207.24 333.055 206.842 331.23 205.926C324.392 202.496 321.18 193.863 322.661 186.358C324.142 178.854 329.539 172.569 335.964 168.418C331.602 165.22 328.411 160.459 327.11 155.209C327.999 156.355 328.658 157.687 329.317 159.019C329.976 160.351 330.635 161.684 331.524 162.83C332.367 163.919 333.44 164.821 334.513 165.724H334.513C335.586 166.627 336.659 167.53 337.502 168.618C337.717 168.896 337.903 169.363 337.598 169.536C331.437 173.035 326.167 178.61 324.419 185.476C322.671 192.341 325.104 200.446 331.137 204.16C332.2 204.814 333.468 205.34 334.675 205.021C335.883 204.703 336.788 203.187 336.095 202.148C334.138 199.218 333.9 195.225 335.495 192.084L340.55 197.752C341.713 197.453 342 195.89 341.691 194.73C341.593 194.362 341.459 193.999 341.325 193.637L341.324 193.637C341.036 192.857 340.748 192.08 340.825 191.264C340.938 190.069 342.498 189 343.322 189.873C346.609 193.357 351.891 194.345 356.619 193.579C361.348 192.812 365.679 190.542 369.915 188.305L374.915 185.665C374.554 187.107 373.385 188.318 371.957 188.729C376.783 192.196 383.236 193.285 388.933 191.595C389.914 191.304 390.922 190.901 391.558 190.099C392.194 189.297 392.298 187.993 391.528 187.317C391.435 187.235 391.33 187.162 391.225 187.09C391.019 186.948 390.815 186.807 390.698 186.591C390.521 186.265 390.795 185.717 391.135 185.866C393.06 185.732 394.247 188.318 393.462 190.082C392.679 191.844 390.743 192.783 388.887 193.308ZM354.73 167.719C353.631 167.366 352.397 168.124 351.919 169.175C351.442 170.227 351.577 171.462 351.939 172.558C352.053 171.321 352.211 170.389 352.679 169.575C352.881 169.225 353.506 168.894 354.055 168.603C354.766 168.228 355.35 167.918 354.73 167.719ZM353.797 164.611C355.401 164.212 357.212 164.83 358.238 166.125C359.263 167.42 359.449 169.325 358.693 170.794C358.51 170.574 358.468 170.176 358.414 169.677C358.255 168.203 358.001 165.847 353.797 164.611ZM352.407 176.001C351.899 176.634 353.667 178.308 356.43 177.154C356.942 176.94 356.524 176.916 355.866 176.877C355.265 176.841 354.465 176.795 353.987 176.582C353.583 176.401 353.377 176.113 353.221 175.896C352.992 175.576 352.876 175.416 352.407 176.001ZM358.007 178.12C359.778 177.237 358.667 179.824 354.962 179.507C354.628 179.478 354.191 179.349 354.194 179.013C354.195 178.894 354.508 178.867 354.996 178.824C355.753 178.759 356.929 178.656 358.007 178.12ZM347.079 173.209C347.746 173.86 348.716 173.877 349.364 173.753C349.758 173.676 349.952 173.323 349.59 173.209C349.506 173.182 349.365 173.16 349.197 173.134C348.812 173.073 348.28 172.99 347.924 172.774C347.695 172.636 347.565 172.164 347.452 171.76C347.337 171.346 347.242 171 347.079 171.163C346.759 171.481 346.413 172.558 347.079 173.209ZM347.671 175.411C347.993 175.902 346.765 175.733 346.501 175.411C346.236 175.09 345.976 173.877 346.419 173.877C346.547 173.877 346.591 174.069 346.643 174.297C346.692 174.508 346.748 174.751 346.884 174.907C347.15 175.207 347.327 175.252 347.457 175.285C347.546 175.307 347.613 175.324 347.671 175.411ZM402.943 172.973C403.605 174.297 402.446 175.781 401.329 176.751C396.785 180.696 391.355 183.613 385.559 185.226C391.806 185.268 398.025 182.594 402.292 178.032C404.278 175.908 405.548 171.923 402.986 170.55C406.027 169.542 409.627 167.439 409.163 164.269C408.996 163.137 408.305 162.162 407.633 161.235L407.234 160.688C403.083 155.016 398.008 149.019 391.049 148.595C395.054 146.348 399.825 149.54 403.355 152.477L404.391 153.333C409.065 157.177 413.957 160.833 419.501 163.236C425.456 165.816 432.304 166.848 438.481 164.857L455.769 159.285C459.104 158.182 463.034 156.108 462.731 152.642C462.564 150.732 460.822 149.09 458.906 149.038C456.99 148.984 455.16 150.526 454.887 152.423L454.511 149.475C453.584 148.682 452.105 149.361 451.36 150.326C451.077 150.692 450.843 151.095 450.608 151.497C450.222 152.158 449.838 152.816 449.251 153.296C447.211 154.965 444.5 153.594 442.065 152.152L440.547 151.245C436.22 148.702 431.092 148.313 426.029 147.929C424.936 147.845 423.845 147.763 422.766 147.659C415.708 146.977 408.751 145.257 402.186 142.572C408.206 147.509 416.07 148.337 424.004 149.172C428.002 149.594 432.017 150.017 435.822 150.968C438.841 151.722 442.177 153.261 442.918 156.283C443.993 160.671 438.781 164.07 434.281 164.48C426.924 165.151 419.754 162.022 413.507 158.029L412.804 157.573C410.542 156.089 408.351 154.491 406.161 152.896C402.142 149.968 398.127 147.042 393.691 144.818C398.273 145.048 401.619 141.731 405.037 138.342C406.88 136.515 408.745 134.666 410.835 133.342C416.978 129.452 424.822 130.338 432.052 131.587L433.189 131.787C431.487 123.551 427.334 115.837 421.394 109.884L431.601 129.95C420.855 126.37 407.966 130.844 401.749 140.313C406.548 124.12 417.963 109.995 432.788 101.905C437.566 103.692 441.6 106.882 445.628 110.065L445.631 110.068C446.931 111.095 448.23 112.121 449.552 113.099C454.976 117.112 461.572 120.511 468.213 119.317C472.987 118.459 477.005 115.353 480.573 112.032L481.147 111.493C485.397 107.463 489.348 103.118 492.955 98.505C496.903 93.4576 501.755 87.4643 508.119 88.2166C509.242 88.3498 510.335 88.7003 511.423 89.0493C512.928 89.5322 514.424 90.0121 515.985 89.9118C518.675 89.7389 521.148 86.1273 519.036 84.4519L508.2 75.8504C507.14 75.0093 505.918 74.1199 504.577 74.2944C503.625 74.4177 502.832 75.0605 502.095 75.6782L499.662 77.7216C493.988 82.5003 488.383 87.3786 483.46 92.9204C483.141 93.2793 482.82 93.6436 482.497 94.0102C478.507 98.5448 474.176 103.466 468.249 103.82C462.466 104.166 457.606 99.992 453.165 96.1761C452.941 95.9847 452.719 95.7942 452.498 95.6044L451.671 94.9033C446.961 90.9504 441.924 87.3862 436.63 84.2598C431.95 81.4962 426.761 79.0066 421.339 79.3839C414.996 79.8255 409.645 84.067 405.063 88.5235L404.369 89.2039C402.121 91.4126 399.433 93.7997 396.341 93.3275L396.094 93.2946C392.98 92.9403 390.059 94.8727 387.711 97.0363L387.345 97.3792C381.207 103.236 376.686 110.769 374.406 118.94C361.015 115.355 346.334 116.833 333.927 123.016C330.802 124.575 327.754 126.474 325.577 129.206C322.47 133.107 321.559 138.054 320.64 143.045C319.97 146.687 319.294 150.35 317.759 153.649C317.304 154.625 316.771 155.579 316.24 156.531C314.992 158.763 313.747 160.989 313.518 163.502C313.191 167.089 316.54 171.25 319.86 169.857C323.186 169.333 324.946 164.644 322.786 162.061C324.132 163.025 326.008 163.191 327.502 162.477L324.032 156.071C329.885 152.954 335.081 148.607 339.181 143.394C340.858 141.263 343.974 140.724 346.606 141.378C348.863 141.939 350.852 143.213 352.757 144.566L353.704 145.246C352.601 146.049 353.237 148.183 354.6 148.251C353.72 144.67 357.301 140.908 360.972 141.257C364.643 141.605 367.423 145.51 366.943 149.166C365.005 153.969 360.209 156.709 355.465 159.419C350.318 162.359 345.234 165.264 343.929 170.73C342.615 176.236 346.861 182.402 352.474 183.139C358.086 183.875 363.78 179.012 363.93 173.353C363.93 173.353 364.76 173.439 365.054 172.558C365.518 171.17 365.956 169.633 366.391 168.109C367.208 165.244 368.012 162.428 368.94 160.746C371.543 156.029 376.386 152.294 381.771 152.163C383.482 152.122 385.181 151.869 386.878 151.615H386.879C389.048 151.292 391.214 150.968 393.396 151.088C397.287 151.303 401.553 153.581 402.114 157.437C397.799 156.599 393.296 156.741 389.043 157.848L404.102 159.639C407.41 160.032 408.028 165.153 405.671 167.506C403.449 169.725 400.063 170.089 396.894 170.23L396.32 170.253C396.874 171.384 398.251 171.5 399.63 171.617C401.005 171.734 402.381 171.851 402.943 172.973ZM483.053 107.164C478.384 112.348 472.926 117.918 465.954 118.179C459.858 118.406 454.526 114.478 449.594 110.844L449.229 110.576L448.051 109.715C442.541 105.717 436.834 101.992 430.957 98.5555C426.406 95.8944 421.172 93.3245 416.068 94.6439L424.148 97.1871C422.785 97.918 422.3 99.9063 423.173 101.183C423.36 99.2719 425.57 98.0565 427.467 98.355C429.364 98.6542 430.907 100.046 432.082 101.566C421.895 105.471 413.229 113.204 408.192 122.881C407.255 124.681 406.441 126.543 405.626 128.404C404.522 130.926 403.419 133.446 402.014 135.81C399.571 139.918 395.954 143.655 391.301 144.743C390.649 144.896 389.981 144.995 389.314 145.095C387.977 145.296 386.643 145.496 385.452 146.115C385.388 146.149 385.323 146.183 385.257 146.218L385.132 146.285L385.038 146.334C383.642 147.081 381.919 148 381.058 146.787C379.647 144.8 377.399 143.429 374.987 143.086C378.975 129.684 389.237 118.296 402.152 112.938C402.883 112.635 402.603 111.541 402.204 110.858L396.329 100.806C395.787 99.8772 396.422 98.6152 397.378 98.1223C398.334 97.6294 399.473 97.7037 400.54 97.8369C407.336 98.6825 413.879 101.471 419.195 105.787C420.045 106.477 421.438 107.155 422.061 106.253C415.995 100.137 407.32 97.3004 398.782 96.1577C406.162 95.4368 413.794 97.7603 419.52 102.472L419.798 102.701C421.166 103.812 422.821 104.992 424.399 104.311C418.005 98.1774 409.261 94.5582 400.403 94.3768C402.226 93.0214 403.928 91.5144 405.63 90.0075L405.631 90.0067H405.632C407.361 88.4761 409.09 86.9454 410.945 85.5732C414.628 82.8509 419.029 80.7248 423.601 80.9919C426.921 81.1855 430.032 82.6182 432.969 84.1772C439.177 87.4727 445.021 91.4517 450.364 96.0177C450.743 96.3406 451.123 96.669 451.507 96.9988C456.585 101.375 462.125 106.149 468.689 105.532C472.691 105.157 476.237 102.739 479.054 99.8703C480.612 98.2838 482.002 96.5457 483.392 94.8077C484.514 93.404 485.638 92.0004 486.849 90.6749C488.598 88.7638 490.622 86.9661 493.108 86.2367C495.593 85.5066 498.622 86.1112 500.099 88.2396L483.053 107.164ZM322.203 142.666C323.103 137.741 323.993 132.87 327.322 129.284C328.952 127.528 331.037 126.263 333.16 125.152C344.022 119.472 356.688 117.309 368.819 119.065C371.787 119.494 375.466 121.16 375.417 123.978C375.4 124.151 375.383 124.324 375.368 124.496C375.398 124.32 375.414 124.147 375.417 123.978C376.627 112.194 383.492 101.106 393.52 94.7924C394.409 100.995 397.126 106.923 401.244 111.645C390.331 116.241 381.271 125.078 376.404 135.872L376.327 136.043C374.944 139.069 372.752 142.785 369.55 142.031L371.135 132.238C371.281 131.34 371.415 130.367 370.989 129.564C370.514 128.666 369.498 128.253 368.507 127.954L368.159 127.852C362.421 126.228 355.984 124.669 350.744 127.515C347.972 129.021 345.982 131.544 344.121 134.135L342.74 136.076C339.461 140.654 335.789 144.952 331.779 148.907C330.163 150.499 328.418 152.081 326.255 152.767C324.093 153.453 321.406 152.991 320.122 151.121C321.146 148.448 321.676 145.548 322.203 142.666ZM357.565 180.827C354.159 182.091 351.386 181.468 348.727 179.92C347.589 179.257 346.518 178.403 345.876 177.253C344.916 175.528 345.06 173.387 345.614 171.491C346.443 168.658 348.138 166.085 350.415 164.205C351.988 162.906 353.801 161.952 355.613 160.998L355.614 160.998C356.239 160.668 356.863 160.339 357.479 159.996C363.488 156.644 368.672 151.824 372.451 146.074C373.206 144.926 374.796 144.554 376.127 144.893C377.458 145.232 378.568 146.144 379.527 147.127C380.214 147.83 380.723 149.228 379.807 149.583C373.39 152.067 368.223 157.58 366.158 164.143C366.103 164.322 366.047 164.503 365.993 164.684C365.679 165.723 365.362 166.773 364.688 167.613C363.898 168.6 362.31 172.073 363.12 173.72C363.12 173.72 360.972 179.564 357.565 180.827ZM366.468 128.834C367.507 129.067 368.639 129.401 369.21 130.302C369.677 131.039 369.647 131.975 369.573 132.844C369.284 136.283 368.561 139.684 367.427 142.943C367.236 143.494 366.644 144.156 366.213 143.764C365.724 141.296 363.47 139.29 360.963 139.091C358.455 138.892 355.913 140.517 355.041 142.877C354.869 143.342 354.264 143.515 353.784 143.386C353.425 143.291 353.118 143.073 352.824 142.838L352.533 142.601C349.547 140.175 345.504 139.098 341.706 139.717C343.73 136.311 346.296 133.23 349.28 130.624C350.5 129.558 351.825 128.552 353.367 128.052C354.818 127.582 356.377 127.586 357.901 127.663C360.783 127.81 363.652 128.202 366.468 128.834ZM502.656 85.4982C501.205 83.9499 499.215 82.9144 497.112 82.6205L499.497 79.5906C500.254 78.6408 501.137 77.6665 502.33 77.5173C503.191 77.4086 504.037 77.7622 504.82 78.1349C507.44 79.3831 509.909 80.9467 512.158 82.7812C512.909 83.3935 513.663 84.0769 513.989 84.9892C514.315 85.9007 514.053 87.0946 513.179 87.5117C512.305 87.9289 511.046 87.015 511.404 86.1158L511.439 86.0148C511.586 85.5028 511.354 84.8989 510.891 84.6295L510.047 86.2482C509.97 86.3898 509.879 86.5268 509.74 86.6041C509.176 86.9155 508.718 86.0392 508.682 85.3964L508.675 85.3076C508.615 84.6739 508.282 83.8665 507.7 84.0639C507.622 85.1484 506.846 86.1502 505.816 86.4977C504.786 86.8451 503.562 86.5183 502.842 85.7025L502.656 85.4982ZM320.797 165.416L319.778 161.548C319.293 161.412 318.82 161.898 318.751 162.397C318.705 162.729 318.78 163.058 318.879 163.382L319.036 163.864C319.56 165.506 319.547 167.314 318.999 168.948C317.989 166.88 317.462 164.577 317.471 162.275C316.812 161.913 316.363 163.016 316.411 163.767L316.696 168.244C315.314 166.998 314.827 164.978 315.063 163.134C315.3 161.288 316.165 159.585 317.14 158C317.648 157.174 318.211 156.344 319.019 155.807C319.828 155.271 320.942 155.086 321.768 155.597C322.454 156.02 322.772 156.773 323.095 157.536C323.34 158.113 323.586 158.696 323.996 159.148C324.142 159.308 324.311 159.471 324.484 159.638C325.151 160.281 325.864 160.969 325.397 161.663C323.96 160.78 322.645 159.698 321.503 158.457C321.089 161.02 321.468 163.705 322.574 166.054C322.801 166.534 322.053 166.992 321.582 166.746C321.112 166.499 320.933 165.929 320.797 165.416ZM458.851 152.763C459.587 152.112 460.261 151.517 460.586 151.679C461.535 152.152 458.957 154.231 457.593 154.819C457.692 155.478 458.647 155.183 459.206 154.819C459.765 154.455 461.328 154.064 461.022 154.46C459.115 156.927 455.432 158.887 452.027 159.272C450.647 159.427 448.941 159.058 448.501 157.741C448.1 156.539 448.993 155.353 449.937 154.46L450.164 154.251C450.562 153.896 451.199 153.549 451.565 153.937C452.538 154.966 454.238 154.124 455.359 153.258C455.359 153.258 458.272 150.448 458.76 150.628C459.245 150.806 457.307 153.975 457.307 153.975C457.787 153.705 458.334 153.221 458.851 152.764V152.763ZM444.91 155.372C445.258 155.292 445.621 155.433 445.922 155.626C447.017 156.329 447.539 157.81 447.128 159.044C446.717 160.278 445.41 161.149 444.113 161.055C443.929 161.042 443.736 161.007 443.593 160.891C443.289 160.649 443.328 160.186 443.395 159.804L443.884 157.009C444.002 156.334 444.242 155.523 444.91 155.372ZM383.218 149.025C385.095 148.709 387.037 148.786 388.883 149.252C388.776 150.013 387.887 150.359 387.135 150.514C384.813 150.994 382.413 151.097 380.058 150.819C380.648 149.71 381.98 149.235 383.218 149.025ZM500.851 87.0526L495.927 84.145C498.353 83.7823 500.941 85.0566 502.132 87.201C501.791 87.5125 501.249 87.2875 500.851 87.0526ZM392.946 145.375C390.859 145.927 388.795 146.569 386.763 147.3C388.873 148.467 391.871 147.534 392.946 145.375ZM372.541 142.734C373.115 142.853 372.854 143.758 372.396 144.123C371.001 145.238 368.881 145.334 367.39 144.351L372.541 142.734ZM503.582 75.281C503.92 75.2006 504.268 75.3376 504.584 75.4807C506.641 76.4091 508.525 77.7185 510.111 79.3234L503.035 75.7103C503.144 75.4975 503.349 75.3361 503.582 75.281ZM395.771 94.8016L395.84 94.8505C396.479 94.7587 397.138 94.8123 397.753 95.0074C397.216 96.0215 396.469 96.9246 395.573 97.6417C395.125 96.7524 395.204 95.6205 395.771 94.8016ZM516.863 84.8729L516.878 84.9173C517.659 85.2349 518.192 86.0836 518.138 86.9255C516.527 86.0905 515.223 84.677 514.521 83.0047C515.483 83.3376 516.324 84.0088 516.863 84.8729ZM370.345 146.637L370.228 146.797C369.82 147.352 369.334 147.953 368.65 148.033C367.966 148.112 367.266 147.228 367.748 146.737C368.558 146.374 369.509 146.337 370.345 146.637ZM321.914 153.503C322.524 153.646 323.213 154.091 323.118 154.71C321.72 154.527 320.341 154.204 319.009 153.747C319.92 153.366 320.952 153.279 321.914 153.503ZM451.699 153.385C451.381 153.523 451.094 152.943 451.396 152.774C451.396 152.774 453.48 149.12 453.57 151.679C453.615 152.316 452.268 153.095 451.699 153.385ZM363.65 172.148C363.804 171.039 364.096 168.948 364.688 168.948C365.528 168.859 365.205 170.289 364.977 171.297C364.915 171.574 364.859 171.82 364.837 171.993C364.761 172.598 364.196 173.074 363.548 172.782C363.574 172.694 363.606 172.46 363.65 172.148ZM168.33 210.497C172.604 210.866 176.895 211.042 181.186 211.025C180.881 215.059 184.162 219.032 188.181 219.496C192.2 219.96 196.299 216.838 196.92 212.84C197.17 211.235 199.343 210.955 200.963 211.081L211.274 211.884C213.041 212.022 215.542 211.465 215.352 209.703L214.184 198.904C214.078 197.93 214.418 196.511 215.379 196.703C219.472 197.525 223.943 194.387 224.503 190.251C225.064 186.114 221.527 181.875 217.355 181.744C215.35 181.681 214.397 179.059 214.917 177.122C215.196 176.081 215.728 175.138 216.26 174.193C216.718 173.381 217.176 172.569 217.476 171.691C218.123 169.793 217.58 167.147 215.627 166.689C200.796 163.212 185.228 162.917 170.276 165.829L170.003 165.883C169.18 166.049 168.356 166.253 167.645 166.693C165.31 168.139 165.13 171.327 165.244 174.138L165.32 175.701C165.73 184.769 165.017 193.886 163.2 202.779L163.159 202.981C162.753 205.008 162.422 207.325 163.775 208.861C164.779 210 166.383 210.306 167.915 210.459L168.33 210.497ZM194.633 212.671C194.753 213.255 194.604 213.864 194.369 214.411L194.294 214.578C192.914 217.491 188.806 218.74 186.054 217.036C183.249 215.3 182.562 210.938 184.696 208.423C179.272 209.073 173.777 209.116 168.343 208.55C166.662 208.375 164.464 207.468 164.808 205.812C167.173 194.43 167.911 182.712 166.994 171.122C166.828 169.022 169.413 167.932 171.486 167.552C184.856 165.097 198.69 165.199 212.023 167.85C213.728 168.189 215.923 169.485 215.167 171.051C213.388 174.738 212.677 178.933 213.141 183.001C213.26 184.038 214.072 185.396 214.978 184.876C217.417 183.475 220.946 184.598 222.126 187.15C223.307 189.703 221.879 193.119 219.232 194.071C216.586 195.023 213.308 193.3 212.593 190.58C211.953 196.181 212.181 201.881 213.265 207.413C213.641 209.331 210.849 210.054 208.901 209.908L193.345 208.75C192.869 209.501 193.357 210.277 193.871 211.093C194.192 211.603 194.522 212.127 194.633 212.671ZM275.126 177.517L305.595 178.13L306.092 178.142C307.007 178.171 307.929 178.251 308.753 178.635C310.615 179.505 311.469 181.648 312.036 183.623C315.059 194.17 314.686 205.662 310.985 215.99L310.829 216.413C310.347 217.683 309.717 218.95 308.58 219.666C307.643 220.254 306.502 220.377 305.392 220.436L305.154 220.448C300.624 220.663 296.078 220.547 291.564 220.102C293.914 218.655 294.508 215.131 293.015 212.809C291.522 210.487 288.369 209.517 285.713 210.272C284.095 210.731 282.587 211.838 282.002 213.415C281.415 214.993 281.982 217.018 283.478 217.788C284.513 218.321 284.334 219.999 283.428 220.729C282.523 221.46 281.263 221.512 280.1 221.531L264.813 221.779C263.664 221.797 262.456 221.802 261.447 221.251C260.017 220.471 259.359 218.789 258.956 217.21C257.983 213.401 257.852 209.379 258.573 205.513C259.443 208.566 263.204 210.42 266.155 209.249C269.104 208.079 270.572 204.15 269.112 201.332C267.652 198.514 263.596 197.448 260.938 199.183L260.828 198.198C260.447 194.746 260.151 191.249 260.813 187.848C261.54 184.124 263.611 180.468 267.006 178.775C269.483 177.541 272.343 177.473 275.126 177.517ZM308.386 180.704C307.623 180.245 306.703 180.166 305.808 180.129L305.585 180.12C296.107 179.766 286.623 179.587 277.139 179.582L273.977 179.587C271.977 179.594 269.912 179.623 268.082 180.429C265.35 181.632 263.58 184.421 262.858 187.317C262.136 190.213 262.309 193.247 262.487 196.227C267.29 194.903 272.456 199.784 271.886 204.732C271.316 209.681 265.829 213.255 260.94 212.301C260.718 213.864 260.5 215.488 260.96 216.998C261.419 218.509 262.76 219.875 264.338 219.825L278.511 219.369C279.389 219.34 280.601 218.887 280.346 218.046C278.898 213.276 283.076 207.707 288.061 207.763C293.046 207.82 297.098 213.482 295.543 218.218C298.658 218.919 301.896 219.067 305.063 218.652C306.09 218.517 307.163 218.299 307.951 217.625C308.725 216.961 309.106 215.958 309.429 214.991C312.717 205.136 313.078 194.322 310.452 184.27C310.112 182.97 309.642 181.571 308.553 180.813L308.386 180.704ZM173.911 274.56C172.403 264.742 172.405 254.692 173.917 244.873L173.994 244.399C174.37 242.17 175.029 239.818 176.891 238.591C178.284 237.672 180.045 237.603 181.724 237.602L194.578 237.638C195.162 237.64 195.804 237.661 196.244 238.047C196.684 238.432 196.672 239.319 196.107 239.475C194.761 239.848 193.988 241.4 194.151 242.788C194.314 244.175 195.217 245.376 196.276 246.287C198.802 248.459 202.73 249.23 205.526 247.42C208.323 245.609 208.981 240.943 206.331 238.925C212.335 238.803 218.342 238.821 224.345 238.981L226.596 239.048C227.324 239.071 228.128 239.129 228.636 239.65C229.018 240.041 229.144 240.61 229.23 241.149C229.895 245.306 229.168 249.672 227.192 253.389C226.878 253.98 226.149 254.633 225.652 254.182C223.543 252.267 219.996 252.528 217.838 254.387C215.679 256.247 214.844 259.335 215.226 262.158C215.594 264.875 217.574 267.778 220.313 267.641C221.084 267.602 221.887 267.336 222.674 267.075C224.087 266.606 225.451 266.154 226.497 267.064L223.752 279.333C223.264 281.512 222.388 284.098 220.204 284.564C207.596 287.261 194.376 287.058 181.857 283.974L181.249 283.82C179.73 283.422 178.217 282.907 177.032 281.893C174.968 280.126 174.324 277.244 173.911 274.56ZM224.064 269.258C220.497 270.935 215.85 269.495 213.618 266.247C211.386 262.998 211.604 258.356 213.895 255.148C216.185 251.94 220.302 250.235 224.23 250.571L224.557 250.599C225.107 250.646 225.672 250.666 226.14 250.391C226.731 250.043 226.983 249.327 227.148 248.661C227.804 246.003 227.767 243.178 227.044 240.539L210.426 240.66C210.729 245.273 206.932 249.774 202.334 250.253C197.736 250.732 193.093 247.111 192.438 242.534L192.347 241.853C192.248 241.167 192.094 240.489 191.581 240.053C191.222 239.748 190.749 239.626 190.282 239.534L190.106 239.5C185.272 238.586 179.142 238.207 176.605 242.423C175.741 243.858 175.509 245.576 175.333 247.242C174.324 256.808 174.563 266.505 176.046 276.01L176.118 276.454C176.359 277.868 176.736 279.321 177.788 280.27C178.512 280.923 179.462 281.246 180.405 281.511L180.64 281.577C192.697 284.893 205.533 285.336 217.79 282.865L218.471 282.725C219.074 282.597 219.7 282.451 220.173 282.058C220.79 281.545 221.027 280.718 221.233 279.942L224.064 269.258ZM313.738 293.566C313.738 293.566 313.807 291.654 314.049 291.026C314.485 289.892 315.77 288.279 315.77 288.279C315.68 288.716 315.555 289.182 315.427 289.665C314.984 291.317 314.496 293.142 315.238 294.493C315.81 295.535 324.182 301.021 327.06 302.306C339.365 307.805 351.731 312.781 364.156 317.781H364.157L364.158 317.782L364.169 317.787C369.246 319.829 374.332 321.877 379.428 323.965C370.669 322.897 362.605 318.818 354.747 314.806C353.051 324.216 358.294 333.701 365.369 340.134C370.519 344.818 376.583 348.29 382.645 351.762H382.646L382.647 351.763C384.909 353.059 387.172 354.354 389.387 355.713L390.201 356.217C398.061 361.138 405.578 367.349 409.049 375.915C409.685 377.487 411.64 378.381 413.245 377.836C414.85 377.291 415.856 375.392 415.405 373.758C417.084 375.137 416.115 378.218 414.079 378.981C412.043 379.742 409.71 378.708 408.207 377.138C407.075 375.954 406.285 374.509 405.496 373.064L405.495 373.064V373.062L405.493 373.059C405.236 372.588 404.978 372.118 404.709 371.656C399.858 363.339 391.287 358.173 382.784 353.444L378.792 351.235C369.565 346.082 360.111 339.893 356.159 330.139C341.811 332.415 326.875 330.872 313.297 325.708C310.392 324.604 307.548 323.337 304.706 322.071C300.177 320.055 295.653 318.04 290.892 316.684C288.241 315.928 284.585 315.847 283.592 318.42C283.591 318.419 283.59 318.42 283.587 318.426C283.559 318.476 283.37 318.807 282.524 318.88C282.127 318.913 281.763 318.218 281.65 317.757C281.553 317.628 281.52 317.263 281.52 316.516C281.52 316.112 282.341 314.35 283.887 313.26C284.963 312.502 286.173 312.227 286.806 312.083C287.093 312.018 287.261 311.979 287.247 311.936C287.215 311.834 286.115 311.549 285.116 312.034C284.345 312.407 283.616 312.902 282.944 313.355L282.944 313.356C281.906 314.059 281.008 314.666 280.319 314.585C279.384 314.477 278.721 314.041 278.711 313.101C278.701 312.161 278.95 311.017 279.676 310.427C281.226 309.164 283.228 308.468 285.227 308.496C285.659 308.503 286.137 308.564 286.419 308.892C286.701 309.219 286.562 309.872 286.131 309.892C283.539 310.008 280.543 310.442 279.534 313.101C279.24 313.874 281.095 313.999 281.812 313.587C282.228 313.347 282.586 313.025 282.944 312.703C283.202 312.469 283.462 312.236 283.743 312.034C284.586 311.428 285.632 311.111 286.67 311.147C287.088 311.162 287.549 311.258 287.795 311.597C288.042 311.935 287.868 312.549 287.45 312.556C284.763 312.599 282.311 314.928 282.126 317.608C282.136 317.706 282.211 318.148 282.524 318.254C282.889 318.376 283.293 318.078 283.31 318.048C284.709 315.55 287.262 313.881 290.008 314.718C291.046 315.034 292.044 315.514 293.039 315.994C294.778 316.832 296.504 317.663 298.4 317.592L297.262 311.557C292.648 307.327 285.694 305.835 279.751 307.801C279.115 308.012 278.427 308.317 278.168 308.935C277.909 309.553 278.478 310.449 279.103 310.211C278.12 311.121 276.457 309.576 276.831 308.289C277.205 307.002 278.617 306.34 279.914 306.003C287.193 304.111 294.448 307.409 301.459 310.596L301.465 310.598C302.764 311.189 304.055 311.775 305.336 312.325C319.612 318.443 335.741 320.155 350.983 317.168C350.322 318.978 348.068 319.525 346.154 319.74C332.578 321.267 318.633 319.399 305.937 314.352C304.387 316.322 305.125 319.382 306.89 321.163C308.655 322.944 311.151 323.753 313.553 324.471C327.014 328.494 341.285 331.571 355.04 328.71L352.81 315.668L352.765 315.43C352.655 314.909 352.453 314.371 351.966 314.206L351.843 314.164C334.213 308.177 320.777 303.614 303.331 286.984C303.296 286.95 303.262 286.916 303.229 286.881C303.1 291.879 301.515 292.979 294.905 291.617C280.483 288.644 265.717 287.088 251.16 289.133C252.261 283.693 253.64 278.309 255.289 273.009C250.553 274.537 244.961 270.197 245.268 265.229C245.574 260.262 251.656 256.64 256.169 258.74C257.719 255.163 257.818 250.981 256.437 247.335C255.775 245.586 258.414 244.577 260.284 244.577L270.618 244.574C272.063 244.574 274.077 243.903 273.718 242.504C272.867 239.186 275.149 235.395 278.479 234.593C281.748 233.806 285.43 236.045 286.274 239.29L286.318 239.471C287.103 242.956 291.516 244.061 295.087 243.993L296.865 243.95C299.954 243.886 303.173 243.986 305.24 246.147C307.713 248.731 307.16 252.846 306.345 256.353L306.291 256.586C305.893 258.263 305.314 259.624 304.731 260.994C303.621 263.604 302.498 266.242 302.597 271.137C302.638 273.133 302.71 274.964 302.792 276.641C303.079 275.463 303.331 274.685 303.331 274.685C303.331 274.685 337.012 299.763 357.814 303.167C360.307 300.965 358.868 296.674 356.358 294.493C355.299 293.574 354.094 292.831 352.893 292.089C351.244 291.072 349.6 290.058 348.348 288.597C345.862 285.694 345.418 281.694 344.977 277.728C344.498 273.415 344.023 269.143 340.933 266.364C340.658 266.116 340.364 265.885 340.07 265.653C339.408 265.13 338.746 264.609 338.296 263.905C337.181 262.162 337.729 259.738 339.079 258.17C340.429 256.602 342.402 255.727 344.356 255.046C348.41 253.63 352.855 252.84 356.994 253.98C361.134 255.12 364.842 258.568 365.249 262.843C366.034 261.142 367.759 259.913 369.622 259.726L366.917 262.602L370.34 262.67L365.63 265.3C368.55 270.701 368.077 277.363 366.205 283.211C365.976 283.927 365.726 284.643 365.476 285.361C364.475 288.231 363.467 291.124 363.725 294.12C364.043 297.802 367.313 301.564 370.888 300.81L371.067 300.769C375.364 299.684 380.068 300.312 383.929 302.487C388.432 305.023 391.497 309.324 394.53 313.581C395.234 314.569 395.937 315.555 396.655 316.516C400.021 321.017 404.004 325.203 408.983 327.811C413.963 330.419 420.068 331.28 425.255 329.114C426.209 328.716 427.126 328.221 428.041 327.728C429.595 326.889 431.145 326.052 432.864 325.696C435.595 325.13 439.073 326.466 439.396 329.236C437.983 326.876 434.637 326.457 432.004 327.253C430.518 327.702 429.147 328.436 427.775 329.172C426.715 329.739 425.655 330.307 424.539 330.745C418.953 332.938 412.447 331.609 407.305 328.516C402.323 325.52 398.421 321.046 394.901 316.411L394.561 315.961C394.204 315.487 393.848 315.01 393.493 314.532L393.492 314.531L393.492 314.529L393.491 314.529L393.489 314.528V314.526L393.488 314.526L393.487 314.524L393.486 314.523C391.011 311.197 388.518 307.846 385.25 305.316C381.585 302.477 376.663 300.799 372.251 302.162L371.982 302.249C367.761 303.679 363.291 299.641 362.531 295.25C361.772 290.858 363.562 286.471 365.313 282.373C367.12 278.147 363.802 273.215 359.619 271.31C355.737 269.542 351.075 269.582 347.224 271.417C345.977 272.011 345.751 273.648 345.793 275.047L345.798 275.202C346.015 280.143 347.334 285.337 350.941 288.721C352.013 289.727 353.253 290.539 354.489 291.351C356.037 292.365 357.582 293.378 358.791 294.765C360.968 297.26 361.302 301.934 358.279 303.283C363.467 304.22 368.599 305.46 373.642 306.995C346.511 304.22 321.565 291.423 303.655 275.965C303.289 276.681 303.03 277.438 302.873 278.214C302.915 278.989 302.957 279.727 302.998 280.43C303.055 281.421 303.108 282.342 303.149 283.195C304.012 286.032 306.027 288.533 308.794 289.633C308.575 287.64 309.247 285.565 310.593 284.079C309.72 286.032 308.334 289.776 313.738 293.566ZM355.413 255.372C352.999 254.922 350.545 254.683 348.089 254.657C347.922 254.967 347.859 255.331 347.912 255.678C350.65 255.906 353.346 256.627 355.833 257.797C354.793 258.836 353.077 258.214 351.682 257.708L351.6 257.679C349.217 256.816 346.601 256.608 344.112 257.081C342.842 257.323 341.572 257.758 340.595 258.603C339.617 259.448 338.977 260.763 339.195 262.038C339.474 263.665 341.004 264.776 342.532 265.402C346.319 266.953 350.857 266.516 354.279 264.271C354.556 264.089 354.947 264.393 354.963 264.724C354.979 265.055 354.756 265.348 354.521 265.582C353.157 266.939 351.129 267.371 349.208 267.483C348.647 267.516 348.083 267.527 347.519 267.537C346.153 267.564 344.786 267.591 343.465 267.925C343.644 269.014 345.004 269.389 346.104 269.469C350.311 269.774 354.577 269.208 358.559 267.817C359.555 267.468 360.472 268.467 361.06 269.344L365.348 275.744C366.757 274.418 366.672 272.127 366.008 270.309C365.748 269.6 365.418 268.915 365.088 268.231C364.573 267.165 364.06 266.101 363.819 264.947C363.686 264.311 363.637 263.659 363.59 263.008C363.523 262.093 363.455 261.181 363.153 260.321C362.086 257.29 358.572 255.961 355.413 255.372ZM303.61 313.789L299.718 311.552C299.286 311.304 298.49 311.262 298.534 311.758C298.4 313.768 298.565 316.229 299.856 317.904C300.67 318.958 301.258 319.499 304.133 320.213L303.921 314.585C303.91 314.288 303.869 313.937 303.61 313.789ZM362.883 283.178C363.357 282.903 363.658 282.414 363.94 281.945C364.443 281.106 364.962 280.217 364.985 279.239C365.007 278.261 364.331 277.194 363.353 277.155C362.867 277.136 362.404 277.368 362.007 277.649C361.126 278.273 360.444 279.177 360.089 280.197C360.539 280.846 361.557 280.266 362.01 279.62C362.463 278.974 363.135 278.156 363.855 278.478C363.379 280.129 362.538 281.671 361.41 282.965C361.711 283.422 362.41 283.452 362.883 283.178ZM370.67 330.706C369.588 328.987 368.418 327.131 366.49 326.572C370.769 334.626 377.401 341.412 385.354 345.874C388.132 347.432 391.06 348.712 393.987 349.99C398.067 351.773 402.143 353.554 405.794 356.083C410.366 359.253 414.149 363.555 416.708 368.496C415.702 361.451 409.811 356.057 403.521 352.727C400.674 351.219 397.683 350.003 394.693 348.788C391.078 347.319 387.466 345.852 384.113 343.869C378.769 340.708 374.189 336.265 370.867 331.019C370.802 330.916 370.736 330.811 370.67 330.706ZM384.111 333.089L384.23 333.354C384.757 334.574 385.122 336.104 384.133 336.929C383.345 337.587 382.151 337.336 381.222 336.899C379.213 335.957 377.552 334.29 376.614 332.278C377.787 332.046 378.887 331.456 379.729 330.608C380.429 329.902 381.666 330.045 382.455 330.649C383.244 331.253 383.691 332.189 384.111 333.089ZM383.473 335.973C384.485 334.155 382.42 331.475 381.412 331.301C380.973 331.225 380.521 331.659 380.034 332.126C379.534 332.605 379 333.118 378.409 333.149C378.409 333.149 382.461 337.79 383.473 335.973ZM434.526 341.198C459.107 340.391 483.103 328.416 498.528 309.262C499.326 308.27 500.908 308.253 502.017 308.876C503.127 309.499 503.877 310.594 504.587 311.651C505.36 311.538 505.383 310.337 504.85 309.765C504.587 309.483 504.257 309.279 503.928 309.073C503.588 308.863 503.25 308.652 502.983 308.359C501.909 307.17 502.483 305.299 503.113 303.826L505.917 297.259C506.292 296.379 506.88 295.353 507.837 295.366C508.536 295.376 509.075 295.961 509.519 296.501C514.358 302.397 518.848 308.581 522.955 315.007C520.423 315.4 517.988 314.152 515.587 312.922C512.904 311.547 510.263 310.193 507.573 311.169C505.229 312.018 503.847 314.379 502.606 316.542C498.547 323.615 493.895 330.428 488.004 336.068C474.322 349.167 455.231 354.837 436.632 358.421C448.136 362.775 460.809 363.997 472.934 361.92C479.872 360.731 486.791 358.39 492.199 353.883C494.388 352.058 496.288 349.915 498.178 347.782L512.106 332.059C512.922 331.14 514.426 332.023 515.186 332.99C515.946 333.957 516.977 335.162 518.135 334.75C517.306 332.893 515.867 331.314 514.093 330.318C513.988 328.1 513.922 325.726 515.101 323.844C516.28 321.962 519.219 321.046 520.749 322.656C525.764 327.931 530.57 333.406 535.151 339.064C532.463 339.486 529.908 338.33 527.374 337.181H527.373H527.371C526.588 336.826 525.808 336.472 525.025 336.166C521.708 334.868 517.058 334.897 515.545 338.121C511.406 346.941 507.108 355.987 500.005 362.656C488.144 373.793 470.813 376.307 454.646 378.141C447.476 378.954 440.11 379.725 433.129 377.9C428.048 376.57 423.424 373.927 418.869 371.312L415.255 369.237C414.191 369.503 415.046 371.115 415.99 371.672C422.042 375.241 428.28 378.878 435.219 379.972C436.987 380.25 438.778 380.359 440.566 380.426C457.036 381.045 473.628 378.156 488.919 372.007C495.295 369.443 501.784 366.014 505.286 360.1L517.626 339.261C518.099 338.463 518.618 337.62 519.457 337.224C520.479 336.741 521.68 337.049 522.766 337.364L534.332 340.724C535.514 341.067 536.613 339.681 536.489 338.456C536.366 337.232 535.482 336.239 534.641 335.34L523.974 323.922C522.567 322.416 521.054 320.844 519.067 320.296C517.08 319.748 514.525 320.713 514.136 322.738C512.989 328.714 508.907 333.638 504.967 338.276C498.869 345.454 492.52 352.83 484.055 356.96C471.918 362.883 457.574 361.163 444.284 358.757L452.901 356.247C457.167 355.004 461.439 353.76 465.574 352.135C481.615 345.832 495.279 333.669 503.399 318.467C504.808 315.828 506.465 312.778 509.41 312.249C511.829 311.813 513.892 313.242 516.001 314.703C517.255 315.571 518.525 316.45 519.896 316.956C521.918 317.703 525.055 316.641 524.58 314.539C524.472 314.063 524.184 313.652 523.903 313.255L512.929 297.786C511.407 295.64 509.126 293.215 506.621 294.02C504.608 294.668 503.853 296.991 503.188 299.04L503.127 299.227L503.099 299.311L503.068 299.406C499.945 308.923 491.547 315.571 483.576 321.638C480.088 324.291 476.591 326.952 472.828 329.197C461.834 335.757 448.941 338.533 436.167 339.363C432.557 339.597 430.289 342.983 428.212 346.083C427.966 346.451 427.722 346.815 427.478 347.17C423.923 352.351 418.859 356.484 413.071 358.93C414.04 360 415.803 359.359 417.027 358.594C422.834 354.964 427.762 349.935 431.271 344.055C432.045 342.757 433.017 341.248 434.526 341.198ZM357.406 285.671C356.84 286.909 355.581 287.799 354.225 287.92C352.87 288.041 351.472 287.386 350.698 286.267C350.413 285.856 350.416 285.053 350.914 285.097C351.951 286.473 354.112 286.83 355.535 285.858C356.151 285.437 357.22 284.948 357.406 285.671ZM346.511 276.675C346.633 275.639 347.508 274.738 348.54 274.584C349.573 274.43 350.672 275.037 351.092 275.993C350.337 275.993 349.831 275.856 349.41 275.742C348.553 275.511 348.047 275.374 346.511 276.675ZM354.514 282.451L353.339 282.955L353.271 282.916C352.966 283.496 352.069 282.839 352 282.187C351.986 282.053 351.979 281.91 351.972 281.766C351.946 281.214 351.919 280.64 351.462 280.392C350.892 281.214 350.631 282.295 350.963 283.239C351.295 284.182 352.304 284.898 353.289 284.721C354.273 284.543 354.98 283.336 354.514 282.451ZM355.924 274.441C357.411 274.56 357.806 274.64 358.216 275.618C358.297 275.811 357.662 275.629 357.056 275.456C356.612 275.329 356.182 275.207 356.066 275.241C351.092 276.716 354.438 274.321 355.924 274.441ZM355.505 277.01C356.325 277.66 356.088 280.254 354.876 279.766C354.368 279.561 353.761 275.627 355.505 277.01ZM394.82 346.452C394.428 345.964 394.873 345.092 395.498 345.123C395.775 345.302 395.963 345.611 395.994 345.939C395.757 346.324 395.267 346.535 394.824 346.442L394.82 346.452ZM383.651 341.397L384.505 341.267L384.573 341.243C384.87 340.689 383.9 340.056 383.512 340.551C383.428 340.835 383.481 341.155 383.651 341.397ZM389.732 344.766C389.237 344.9 389.17 344.05 389.448 343.62L390.631 344.157C390.449 344.477 390.11 344.702 389.745 344.748L389.732 344.766ZM374.968 332.374C374.837 332.049 374.367 331.926 374.093 332.143L374.168 332.218C373.931 332.528 374.119 333.057 374.499 333.149C374.847 333.114 375.099 332.699 374.968 332.374ZM348.996 279.826C348.52 279.826 348.022 279.361 348.047 278.552C348.071 277.744 348.291 276.996 348.996 277.393C349.701 277.79 349.486 279.826 348.996 279.826ZM127.332 181.572C127.619 181.949 128.274 181.783 128.526 181.383C128.779 180.982 128.747 180.472 128.702 180.001C128.042 173.186 126.273 166.481 123.487 160.228C122.693 158.447 121.858 156.226 123.073 154.701C125.883 161.722 128.715 168.831 129.739 176.324C130.018 178.369 130.118 180.608 128.978 182.33C127.837 184.05 124.997 184.71 123.73 183.08C125.678 182.673 127.169 180.7 127.028 178.714C127.929 179.328 128.083 180.783 127.332 181.572ZM150.041 316.874C160.235 316.315 172.044 314.843 177.391 306.146C178.777 303.891 178.482 300.346 178.238 297.424C178.043 295.076 177.88 293.132 178.651 292.583C180.381 291.349 181.765 294.53 181.765 294.53C181.787 294.439 181.81 294.338 181.835 294.229C181.868 294.087 181.902 293.931 181.939 293.765C182.423 291.598 183.312 287.607 184.71 288.357C185.285 288.665 185.087 290.605 184.951 291.938V291.939C184.919 292.252 184.891 292.532 184.876 292.748C184.844 292.954 184.839 293.126 184.864 293.249C184.883 293.24 184.904 293.229 184.924 293.214C184.933 293.213 184.943 293.208 184.954 293.199C184.961 293.193 184.97 293.184 184.978 293.174C185.205 292.982 185.514 292.511 185.859 291.987C186.572 290.9 187.435 289.585 188.014 290.069C188.923 290.827 185.693 295.67 185.693 295.67C185.693 295.67 189.529 291.455 189.852 293.249C190.176 295.043 181.44 311.246 173.554 317.601C165.668 323.956 154.556 327.513 144.509 326.24C144.733 322.255 146.055 317.093 150.041 316.874ZM184.978 293.174C184.96 293.189 184.942 293.203 184.924 293.214C184.864 293.224 184.857 293.044 184.876 292.748C184.95 292.279 185.169 291.637 185.52 291.023C185.453 291.234 185.387 291.438 185.325 291.629C185.045 292.488 184.842 293.11 185.052 293.062C185.035 293.092 185.019 293.119 185.004 293.139C184.995 293.153 184.986 293.164 184.978 293.174ZM186.877 289.517C186.312 289.874 185.856 290.435 185.52 291.023C186.043 289.365 186.573 287.274 185.285 287.108C183.1 286.824 180.965 290.38 181.343 292.269C180.737 290.764 178.214 291.416 177.603 292.919C177.134 294.072 177.334 295.335 177.532 296.589V296.59C177.592 296.97 177.651 297.349 177.693 297.724C178.349 303.718 173.855 309.321 168.408 311.905C163.272 314.343 157.443 314.685 151.741 314.862L150.412 314.901C147.157 314.986 143.632 314.911 141.147 312.833C138.588 310.692 138.591 305.613 141.805 304.715C149.963 302.436 156.186 294.487 156.439 286.021C156.514 283.518 158.138 281.436 159.706 279.424C159.847 279.243 159.988 279.062 160.126 278.883L160.47 278.432C162.226 276.103 163.67 272.895 162.196 270.378C159.912 273.309 155.633 274.49 152.169 273.147C150.723 272.587 149.443 271.65 148.17 270.72C146.466 269.474 144.777 268.239 142.724 267.93C138.711 267.325 134.729 271.389 135.417 275.39C134.33 274.477 132.644 275.858 132.526 277.272C132.457 278.102 132.675 278.911 132.895 279.722C133.049 280.292 133.203 280.863 133.259 281.446C133.324 282.123 133.254 282.801 133.186 283.481C133.138 283.939 133.091 284.398 133.086 284.858C133.057 287.24 134.118 289.443 135.162 291.614L135.164 291.616L135.165 291.619C135.27 291.837 135.374 292.053 135.477 292.27L135.756 292.865C136.946 295.444 137.829 298.514 136.561 301.056C135.293 303.597 130.978 304.394 129.755 301.83C123.764 289.265 110.183 280.709 96.2621 280.731C80.1442 280.755 65.6426 291.377 56.1437 304.398C54.959 306.022 53.7996 307.772 53.5414 309.765C53.2832 311.759 54.2083 314.047 56.1047 314.713C58.0011 315.381 60.4598 313.515 59.8422 311.602C60.8042 312.726 62.7719 311.663 63.2249 310.256C63.4798 309.465 63.4767 308.63 63.4737 307.793C63.4714 307.14 63.4691 306.486 63.5885 305.849C64.1763 302.727 67.3884 300.923 70.279 299.605L70.8622 299.34C77.6721 296.258 84.7668 293.507 92.215 292.984C99.8768 292.445 108.052 294.575 113.317 300.166C106.133 301.871 101.961 309.08 98.6354 315.737L98.1739 316.666C94.8164 323.408 90.4188 330.764 83.0555 332.194C83.3356 333.647 84.6175 334.848 86.0855 335.033L59.0921 351.081L61.1631 353.65C54.5908 363.723 47.1575 373.234 38.9709 382.045C34.5198 386.836 28.7402 391.801 22.2967 390.685C21.1315 390.483 20.0018 390.083 18.876 389.684C17.2276 389.101 15.5875 388.52 13.8567 388.569C10.9438 388.653 8.02061 392.196 9.99785 394.337C14.3766 399.077 19.3743 403.246 24.824 406.702L24.9652 406.791C25.6286 407.204 26.3582 407.59 27.1275 407.502C27.9051 407.413 28.5383 406.86 29.1167 406.333L65.6748 372.999C68.6688 370.291 71.9635 367.582 75.9524 367.184L76.2892 367.143C79.2388 366.733 81.6687 364.868 84.1063 362.997C85.1671 362.183 86.2293 361.367 87.3368 360.671C91.0838 358.313 97.2983 358.071 98.7555 362.251C99.5293 364.472 98.516 366.731 97.5172 368.958V368.959C97.2195 369.623 96.9226 370.283 96.6754 370.939C95.5978 373.796 96.481 378.191 99.5339 378.136L116.619 377.834C117.233 377.828 117.88 377.862 118.357 378.238C118.857 378.631 119.032 379.285 119.128 379.926L119.168 380.22C119.811 385.454 119.723 390.776 118.905 395.985C118.019 401.629 115.662 407.837 110.336 409.907C106.977 411.213 103.235 410.535 99.6969 409.725L78.1987 404.703C78.1627 402.1 80.5177 399.98 83.0287 399.29C85.1579 398.705 87.3934 398.883 89.6083 399.06C89.7437 399.071 89.88 399.082 90.0162 399.093L90.7968 399.151C96.2376 399.525 101.738 399.019 107.02 397.66L99.3984 378.589C100.175 384.919 101.888 391.135 104.463 396.971L79.411 397.785C77.229 397.845 74.8075 397.749 73.3404 396.157C72.9646 395.748 72.6508 395.245 72.3393 394.747C71.701 393.724 71.0742 392.719 69.9408 392.588C68.9611 392.475 68.0741 393.129 67.3233 393.769C62.4259 397.947 58.359 403.095 55.4287 408.828C56.4851 411.443 59.9853 412.175 62.7045 411.424C64.2949 410.985 65.7467 410.194 67.2009 409.401C68.2333 408.839 69.2665 408.276 70.3517 407.837C76.4078 405.389 83.0654 407.048 89.4613 408.974L93.2597 410.131C100.767 412.386 109.92 413.542 115.546 408.084C118.866 404.863 120.075 400.07 120.733 395.492C122.629 382.28 121.092 368.59 116.312 356.128C121.641 354.071 124.156 348.109 126.112 342.741L129.941 332.229C131.22 328.716 134.127 324.407 137.587 325.822C147.477 329.867 159.159 328.157 168.367 322.735C177.576 317.314 184.468 308.531 189.112 298.907L189.236 298.647C190.144 296.735 191.302 292.272 190.268 291.778C189.882 291.475 189.195 291.977 188.727 292.32C188.474 292.505 188.285 292.644 188.242 292.583C188.215 292.545 188.3 292.298 188.42 291.948C188.893 290.57 189.914 287.596 186.877 289.517ZM121.427 348.526C120.231 351.217 118.251 354.383 115.328 354.026C113.763 353.835 112.581 352.653 111.518 351.439L110.948 350.78C104.772 343.61 96.3815 338.845 87.9483 334.458L85.138 333.007C92.0076 331.655 96.2453 324.862 99.2714 318.548L100.236 316.536C103.002 310.8 106.151 304.898 111.858 302.316C112.647 301.959 113.552 301.674 114.365 301.971C114.489 302.016 114.622 302.067 114.76 302.12C115.764 302.506 117.058 303.004 117.037 302.052C115.206 301.314 114.905 298.643 115.961 296.975C116.925 295.452 118.596 294.573 120.25 293.816L120.721 293.602C119.667 292.147 117.38 293.371 116.185 294.713L116.087 294.823C114.888 296.138 113.047 297.578 111.664 296.509C105.945 292.091 98.3247 290.673 91.1313 291.366C83.9387 292.06 77.076 294.69 70.5048 297.697C68.0963 298.798 65.6503 300 63.8632 301.954C62.4803 303.467 62.3372 305.479 62.1933 307.502C62.1512 308.094 62.1083 308.687 62.0349 309.269C61.8581 310.675 61.0843 310.729 60.4024 310.776C60.0373 310.802 59.6991 310.825 59.4924 311.054C59.4756 311.072 59.422 311.154 59.3416 311.278C58.933 311.906 57.8257 313.607 57.3257 313.437C56.5913 313.188 56.9657 311.602 56.9657 311.602C56.9657 311.602 54.7862 312.225 54.624 311.602C54.0564 309.422 57.3257 304.963 57.3257 304.963C62.8224 296.876 70.974 290.167 79.9352 286.267C89.0626 282.294 99.7137 281.528 109.045 284.995C119.564 288.905 127.895 298.245 130.58 309.142C131.249 311.858 134.409 313.058 137.171 313.509C137.424 313.551 137.68 313.591 137.938 313.632L137.945 313.633L137.958 313.635C140.507 314.033 143.216 314.456 144.84 316.401C145.319 316.975 145.187 317.824 145.022 318.553L144.974 318.763C144.369 321.362 143.312 324.27 140.787 325.058C138.492 325.775 135.773 323.925 135.597 321.527C135.582 321.316 135.577 321.092 135.573 320.866C135.554 319.934 135.533 318.953 134.751 318.568L121.427 348.526ZM99.726 362.738C98.8673 358.328 96.2598 354.361 92.8372 351.451C92.9712 353.184 93.7044 354.866 94.8837 356.143C89.0848 357.987 83.6165 360.864 78.8125 364.599C77.5275 365.599 75.3432 366.511 74.5901 365.067C71.6275 359.386 66.9123 354.634 61.2535 351.629L84.5181 338.259C85.5689 337.656 86.6816 337.034 87.8939 337.022C88.8338 337.013 89.7269 337.373 90.5772 337.792L90.9989 338.005C99.7046 342.489 107.498 348.737 113.768 356.259C115.321 358.121 116.044 360.506 116.659 362.865L119.426 373.676C119.609 374.392 119.743 375.279 119.182 375.759C118.867 376.03 118.422 376.077 118.007 376.109L117.522 376.146C110.634 376.677 105.076 377.105 98.1739 376.109C97.1445 374.134 97.9221 371.688 98.7257 369.161C99.4145 366.996 100.122 364.773 99.726 362.738ZM65.1161 356.09C67.6976 358.363 70.0242 360.925 72.0401 363.712C72.2559 364.01 72.4778 364.343 72.4549 364.71C72.4281 365.139 72.0806 365.469 71.7577 365.751L41.6885 392.068C40.4348 393.166 38.4347 392.974 37.0303 392.077C35.8014 391.292 34.9228 390.089 34.1166 388.864L33.7748 388.338C41.6112 384.22 46.6381 376.842 51.7097 369.399C54.8908 364.731 58.0896 360.035 62.0104 356.103C62.3915 355.721 62.8209 355.326 63.3573 355.265C64.0209 355.191 64.6148 355.649 65.1161 356.09ZM152.68 282.682L153.448 282.918C154.943 283.38 155.191 285.383 155.001 286.937C154.213 293.368 150.216 299.734 144.052 301.732L143.831 301.807C139.815 303.225 136.943 307.426 137.115 311.689C134.419 312.194 131.528 310.037 131.245 307.309C131.188 306.764 131.35 306.058 131.89 305.975C134.34 305.599 136.592 304.096 137.88 301.978C139.168 299.861 139.467 297.169 138.674 294.821C138.512 294.342 138.306 293.861 138.101 293.38C137.514 292.013 136.927 290.641 137.338 289.262C138.277 289.348 138.455 290.636 138.356 291.573L138.345 291.687C138.269 292.612 138.432 293.797 139.329 293.921C139.92 292.564 140.043 291.044 140.165 289.537C140.318 287.633 140.472 285.747 141.563 284.23C142.811 282.496 145.051 281.699 147.187 281.674C149.057 281.652 150.885 282.138 152.68 282.682ZM17.5769 391.119L17.7697 390.897C18.8458 390.661 19.8734 392.039 19.3405 393.003C18.9986 393.622 20.0501 394.234 20.6372 393.84C21.2244 393.447 21.3428 392.648 21.4074 391.944C21.9981 391.759 22.5091 392.435 22.6206 393.044C22.65 393.205 22.6683 393.372 22.6866 393.538C22.7376 394.002 22.7886 394.466 23.0812 394.815C23.479 395.29 24.5328 395.045 24.3599 394.45C24.1021 393.563 25.1495 392.84 26.0637 392.709C26.2835 392.678 26.5104 392.659 26.7379 392.64C27.4567 392.581 28.1815 392.522 28.7047 392.055L28.7836 391.992C29.4477 391.52 30.27 392.392 30.7713 393.166L31.0044 393.542C32.1066 395.255 33.98 396.455 35.9997 396.729C36.3955 396.782 36.1941 397.399 35.9034 397.673L29.0869 404.093C28.7565 404.403 28.221 404.182 27.8339 403.946C23.7878 401.468 20.0525 398.483 16.7433 395.083C15.7009 394.012 16.585 392.303 17.5769 391.119ZM77.1877 403.066C76.9918 403.876 76.4323 404.782 75.6019 404.721C73.5998 404.573 71.5694 404.814 69.6576 405.427C69.8328 404.612 69.4762 403.708 68.792 403.232C68.2922 403.946 68.4966 405.054 69.2183 405.543L67.3118 407.426L66.3996 405.329C65.9495 405.449 65.9365 406.001 65.9679 406.507L65.9901 406.822C66.0812 408.149 64.9554 409.439 63.6283 409.529C62.3004 409.618 61.0116 408.491 60.9236 407.163C60.8287 405.717 61.9361 404.504 62.9655 403.484L70.2775 396.244C70.4329 396.096 70.6112 395.959 70.8209 395.962C71.0528 395.966 71.241 396.142 71.4041 396.307L74.2572 399.186C74.8106 399.745 74.4608 400.599 74.1202 401.432C73.7697 402.289 73.4284 403.122 74.0904 403.587C74.7356 403.625 75.2728 403.065 75.52 402.469C75.6471 402.164 75.7236 401.843 75.8009 401.522C75.8744 401.213 75.9486 400.904 76.0657 400.611C76.3068 400.011 76.8257 399.44 77.4716 399.454C78.1176 399.468 78.6158 400.391 78.116 400.801C77.5834 401.237 77.4318 401.948 77.2834 402.638C77.2527 402.782 77.2221 402.927 77.1877 403.066ZM27.1962 406.268C20.6242 402.753 14.8149 397.82 10.2805 391.905C10.8751 391.341 11.7693 391.94 12.3444 392.578L12.4867 392.745C16.7951 398.076 22.2058 402.513 28.2781 405.693C28.2289 406.172 27.6211 406.495 27.1962 406.268ZM58.7148 404.922C61.5611 401.199 64.7158 397.711 68.1346 394.505C68.6649 394.008 69.7655 393.673 69.8994 394.387C65.9197 398.187 62.1122 402.168 58.4944 406.314C58.1013 405.973 58.3988 405.336 58.7148 404.922ZM36.8509 395.613C34.8644 394.906 33.0933 393.606 31.8245 391.922C31.347 391.288 31.0459 390.187 31.7693 389.861C32.3411 389.604 32.8903 390.144 33.2891 390.669L33.5881 391.076C34.8731 392.771 36.7059 394.046 38.7445 394.656C38.7481 395.2 38.2977 395.71 37.7576 395.773C37.45 395.809 37.1427 395.717 36.8509 395.613ZM134.337 285.434C135.27 285.456 136.061 286.429 135.892 287.348L135.913 287.361C136.043 288.027 135.958 288.732 135.674 289.348C134.653 288.347 134.141 286.85 134.337 285.434ZM152.128 285.456C152.246 285.446 152.37 285.435 152.496 285.434C152.653 285.432 152.836 285.46 153.007 285.487C153.469 285.558 153.856 285.617 153.491 285.046C152.989 284.261 151.524 284.173 151.283 285.073C151.351 285.525 151.7 285.494 152.128 285.456ZM153.309 289.335C153.315 289.307 153.322 289.28 153.329 289.254C153.686 287.904 153.479 286.838 152.496 286.838C152.117 286.867 151.538 288.799 151.593 289.385C151.648 289.971 152.308 290.513 152.819 290.223C153.123 290.05 153.22 289.675 153.309 289.335ZM146.821 288.925C146.135 287.972 146.063 286.616 146.644 285.597C146.73 285.445 146.835 285.295 146.988 285.207C147.373 284.987 147.887 285.286 148.057 285.696C148.226 286.105 148.152 286.57 148.075 287.007C148.075 287.007 147.507 289.877 146.821 288.925ZM292.07 288.952C279.543 285.88 266.458 285.102 253.657 286.674C255.878 281.497 256.854 275.791 256.478 270.17C253.142 272.508 247.666 269.766 247.539 265.694C247.412 261.623 252.708 258.546 256.183 260.672C257.104 261.236 258.116 260.067 258.484 259.052C259.739 255.594 259.751 251.7 258.519 248.235C258.038 246.885 260.076 246.153 261.508 246.181L273.663 246.422C274.48 246.439 275.346 246.442 276.043 246.017C276.741 245.592 277.136 244.57 276.624 243.934C274.521 241.324 276.939 236.653 280.284 236.863C283.629 237.073 285.443 242.01 283.03 244.336C282.58 244.77 283.455 245.329 284.08 245.343L299.974 245.709C303.135 245.782 305.369 249.149 305.498 252.309C305.608 254.983 304.658 257.543 303.72 260.072C303.638 260.293 303.556 260.513 303.476 260.733L303.217 261.448C300.401 269.347 299.495 277.92 300.597 286.233C300.811 287.855 299.318 289.297 297.721 289.648C296.311 289.958 294.859 289.651 293.448 289.298L292.07 288.952Z" fill="#00160A"/>
<path fill-rule="evenodd" clip-rule="evenodd" d="M122.653 143.475C122.769 142.726 123.767 142.293 124.489 142.55C125.211 142.807 125.855 143.842 125.326 144.427C124.489 145.354 122.429 144.929 122.653 143.475Z" fill="#FFB61D"/>
<path fill-rule="evenodd" clip-rule="evenodd" d="M436.753 337.472C436.281 337.868 435.335 338.011 435.247 337.402C437.088 335.529 438.355 333.098 438.835 330.517C439.436 330.356 439.61 331.313 439.459 331.916C438.951 333.95 438.358 336.124 436.753 337.472Z" fill="#00160A"/>
<path d="M30.3272 114.313C30.3085 114.917 29.3926 114.882 28.8387 114.641C29.0381 114.102 29.8463 113.922 30.2558 114.324L30.3272 114.313Z" fill="black"/>
<path fill-rule="evenodd" clip-rule="evenodd" d="M291.696 280.197C291.058 280.765 289.984 279.897 290.079 279.048C290.174 278.198 290.926 277.592 291.647 277.134C294.233 275.496 297.228 274.509 300.282 274.288C300.363 275.452 298.854 275.933 297.709 276.157C295.278 276.63 292.962 277.683 291.007 279.204C291.361 279.421 291.616 279.79 291.696 280.197Z" fill="#00160A"/>
<path fill-rule="evenodd" clip-rule="evenodd" d="M300.368 281.682C298.935 282.373 297.477 283.012 295.998 283.597C296.166 284.221 297.063 284.2 297.671 283.981C298.279 283.762 299.078 283.53 299.473 284.043C298.472 285.57 295.994 285.808 294.721 284.499C294.168 283.931 293.166 284.305 292.451 283.96C291.429 283.466 291.62 281.922 292.222 280.959C293.479 278.948 295.876 277.709 298.243 277.845C299.144 277.897 300.221 278.342 300.281 279.242C297.454 279.065 294.571 280.23 292.663 282.324C293.747 283.162 295.302 282.536 296.525 281.916C297.748 281.297 299.363 280.749 300.368 281.682Z" fill="#00160A"/>
<path fill-rule="evenodd" clip-rule="evenodd" d="M149.872 289.698C150.683 290.51 151.02 290.881 151.02 292.076C151.02 293.27 150.373 294.036 149.279 294.387C148.775 294.549 148.077 294.425 147.947 293.912C151.59 293.168 150.251 291.58 149.872 289.698Z" fill="#00160A"/>
<path fill-rule="evenodd" clip-rule="evenodd" d="M145.012 284.621C145.4 283.332 147.091 282.636 148.274 283.277C148.743 283.53 149.132 283.992 149.157 284.524C147.775 284.556 146.637 283.663 145.012 284.621Z" fill="#00160A"/>
<path fill-rule="evenodd" clip-rule="evenodd" d="M148.319 296.13C140.613 291.852 146.646 297.334 148.319 296.13V296.13Z" fill="#00160A"/>
</svg>
